<svg width="51" height="50" viewBox="0 0 51 50" fill="none" xmlns="http://www.w3.org/2000/svg">
<g filter="url(#filter0_d_305_610)">
<path d="M23.5002 23.4385C23.5002 21.8604 23.5002 20.3858 23.5002 18.9128C23.5002 17.8674 24.1064 17.1643 24.9849 17.146C25.8633 17.1276 26.5163 17.8574 26.5196 18.9462C26.5196 20.4175 26.5196 21.8871 26.5196 23.4836H29.2968C29.9097 23.4836 30.5226 23.4836 31.1338 23.4836C32.1542 23.4987 32.874 24.1399 32.8606 25.0083C32.8473 25.8767 32.1408 26.4963 31.1021 26.503C29.5991 26.5113 28.1111 26.503 26.5196 26.503C26.5196 28.1413 26.5196 29.691 26.5196 31.2408C26.5325 31.5483 26.4508 31.8524 26.2853 32.112C26.1198 32.3715 25.8787 32.574 25.5944 32.692C25.0116 32.9726 24.4455 32.8757 24.0664 32.4415C23.7513 32.0704 23.5613 31.6093 23.5236 31.1239C23.4568 29.6209 23.4986 28.1262 23.4986 26.503H19.554C19.2484 26.503 18.9411 26.518 18.6355 26.503C18.243 26.4824 17.8729 26.3141 17.5994 26.0319C17.3259 25.7498 17.1692 25.3745 17.1609 24.9816C17.1716 24.5881 17.334 24.2139 17.6141 23.9373C17.8941 23.6606 18.2703 23.5029 18.6639 23.497C19.9999 23.4669 21.3359 23.497 22.6719 23.4853C22.9207 23.4803 23.1646 23.4636 23.5002 23.4385Z" fill="#737373"/>
<path d="M25.2505 0C26.6382 0.178691 28.2665 0.360722 29.8831 0.611223C30.8333 0.756514 31.3861 1.57482 31.1857 2.40481C30.9853 3.2348 30.202 3.68905 29.2485 3.5137C26.8113 3.0401 24.3114 2.98363 21.8553 3.34669C20.8166 3.5137 19.9816 2.96092 19.8664 2.05745C19.7545 1.19573 20.3674 0.507682 21.4245 0.375751C22.6102 0.230461 23.8009 0.140281 25.2505 0Z" fill="#737373"/>
<path d="M50.0184 25.2739C49.8363 26.6516 49.6543 28.2799 49.3988 29.8864C49.2552 30.7933 48.4552 31.3293 47.6653 31.164C46.8053 30.982 46.3093 30.1854 46.483 29.2735C46.971 26.8184 47.0303 24.2973 46.6583 21.822C46.503 20.82 46.9923 20.0484 47.8925 19.8831C48.7375 19.7278 49.4957 20.3407 49.6276 21.3711C49.7846 22.5802 49.8731 23.7976 50.0184 25.2739Z" fill="#737373"/>
<path d="M24.7912 50C23.3884 49.818 21.7334 49.6309 20.0901 49.3754C19.8892 49.3503 19.6957 49.2839 19.5216 49.1804C19.3476 49.077 19.1968 48.9387 19.0787 48.7742C18.9606 48.6097 18.8778 48.4226 18.8355 48.2246C18.7931 48.0266 18.7922 47.822 18.8326 47.6236C18.8751 47.4254 18.9565 47.2377 19.0722 47.0714C19.1878 46.905 19.3354 46.7633 19.5064 46.6545C19.6773 46.5457 19.8682 46.472 20.0679 46.4377C20.2676 46.4034 20.4722 46.4091 20.6696 46.4546C23.1868 46.9532 25.7716 47.0097 28.3082 46.6216C29.2251 46.4779 30.0317 47.0558 30.1603 47.8975C30.2855 48.7057 29.7194 49.4589 28.8025 49.5808C27.5584 49.7512 26.3092 49.8497 24.7912 50Z" fill="#737373"/>
<path d="M12.9744 43.9379C12.5819 44.4238 12.3264 45.025 11.9039 45.1854C11.4463 45.3524 10.6714 45.3173 10.3157 45.0184C8.88117 43.8366 7.50775 42.5824 6.20083 41.2609C5.5011 40.5594 4.94165 39.7077 4.36382 38.8911C3.786 38.0745 3.92462 37.186 4.64439 36.69C5.36416 36.1941 6.24592 36.356 6.8154 37.176C8.25721 39.2609 10.0203 41.104 12.0392 42.6369C12.4082 42.9208 12.6086 43.4135 12.9744 43.9379Z" fill="#737373"/>
<path d="M38.6675 4.41216C39.2085 4.68771 39.5793 4.81797 39.8799 5.04008C42.1455 6.71258 44.1044 8.76471 45.6698 11.1055C46.2426 11.9606 46.1357 12.8006 45.4176 13.3183C44.6578 13.8661 43.8127 13.6974 43.1999 12.8073C41.7726 10.7106 40.002 8.8695 37.9627 7.36139C37.3398 6.90214 37.1277 6.22913 37.44 5.5962C37.6755 5.1169 38.2399 4.80461 38.6675 4.41216Z" fill="#737373"/>
<path d="M0 24.7495C0.185371 23.345 0.364062 21.7435 0.616233 20.1637C0.764863 19.2335 1.53975 18.6991 2.32966 18.8661C3.20808 19.0531 3.6807 19.7963 3.51537 20.7465C3.08117 23.2515 2.9676 25.7565 3.38176 28.2866C3.4194 28.492 3.41579 28.7029 3.37116 28.9069C3.32652 29.1109 3.24174 29.3041 3.12176 29.475C3.00178 29.646 2.849 29.7913 2.6723 29.9027C2.4956 30.014 2.29852 30.0891 2.09252 30.1236C1.29927 30.2505 0.539417 29.6743 0.422517 28.7608C0.250506 27.5033 0.150301 26.2308 0 24.7495Z" fill="#737373"/>
<path d="M45.6012 38.5822C45.3307 39.1416 45.2054 39.5458 44.9683 39.8647C43.3149 42.108 41.288 44.0501 38.9763 45.6062C38.0728 46.2141 37.2144 46.1189 36.7034 45.3707C36.1924 44.6226 36.3594 43.7776 37.2512 43.1563C39.3198 41.7414 41.1382 39.9918 42.6319 37.9793C43.1062 37.333 43.7776 37.0875 44.4589 37.4198C44.9132 37.6353 45.2171 38.173 45.6012 38.5822Z" fill="#737373"/>
<path d="M13.7674 5.46259C13.4134 5.9853 13.2297 6.49967 12.8673 6.75351C10.7381 8.2274 8.86079 10.0353 7.30782 12.1075C6.74837 12.8607 5.86494 12.9609 5.17689 12.4415C4.48885 11.9222 4.3753 11.0538 4.92473 10.2939C6.62306 7.90982 8.76389 5.87444 11.2307 4.2986C11.6164 4.05478 12.3279 4.05478 12.7654 4.23848C13.1645 4.41216 13.395 4.98163 13.7674 5.46259Z" fill="#737373"/>
</g>
<defs>
<filter id="filter0_d_305_610" x="-30" y="-26" width="110.018" height="110" filterUnits="userSpaceOnUse" color-interpolation-filters="sRGB">
<feFlood flood-opacity="0" result="BackgroundImageFix"/>
<feColorMatrix in="SourceAlpha" type="matrix" values="0 0 0 0 0 0 0 0 0 0 0 0 0 0 0 0 0 0 127 0" result="hardAlpha"/>
<feOffset dy="4"/>
<feGaussianBlur stdDeviation="15"/>
<feComposite in2="hardAlpha" operator="out"/>
<feColorMatrix type="matrix" values="0 0 0 0 0 0 0 0 0 0 0 0 0 0 0 0 0 0 0.15 0"/>
<feBlend mode="normal" in2="BackgroundImageFix" result="effect1_dropShadow_305_610"/>
<feBlend mode="normal" in="SourceGraphic" in2="effect1_dropShadow_305_610" result="shape"/>
</filter>
</defs>
</svg>
