<svg width="78" height="90" viewBox="0 0 78 90" fill="none" xmlns="http://www.w3.org/2000/svg">
<path opacity="0.5" d="M78 38.7656C77.4859 44.597 77.1479 49.6885 76.5599 54.752C76.1168 58.5692 74.1257 61.807 71.9159 64.862C66.8601 71.8523 60.3329 77.3292 53.2462 82.1507C49.477 84.7134 45.4693 86.9329 41.5354 89.2564C40.7881 89.7224 39.9273 89.979 39.0444 89.9988C38.1616 90.0186 37.2899 89.8009 36.5221 89.3689C25.7969 83.712 16.0715 76.7891 8.03607 67.6412C2.73026 61.5989 0.446612 54.5551 0.142692 46.6617C-0.141344 39.2944 -0.0334151 31.9497 0.759047 24.6246C1.09137 21.5612 1.71909 18.5288 2.24456 15.4907C2.60245 13.4175 4.05956 12.191 5.88592 11.5215C16.2731 7.70709 26.6774 3.92639 37.13 0.269473C38.3888 -0.112468 39.7377 -0.0878383 40.9815 0.339798C51.2863 3.97046 61.5609 7.68458 71.8052 11.4822C73.9042 12.2585 75.5488 13.6454 75.7817 16.1405C76.523 23.9101 77.3013 31.6852 78 38.7656ZM48.0057 38.85C47.9604 38.2825 47.8769 37.7186 47.7558 37.1622C46.6196 32.9567 43.1913 30.2394 38.9506 30.1521C34.9968 30.0734 31.2816 32.6839 30.0716 36.3577C28.731 40.4562 30.225 44.5154 33.9061 47.0471C34.1411 47.2378 34.335 47.4733 34.4765 47.7395C34.618 48.0057 34.7041 48.2973 34.7298 48.5971C34.8236 50.8475 34.7497 53.0979 34.7781 55.3483C34.8094 57.9532 36.5051 59.7141 38.9279 59.7113C41.3507 59.7085 43.0748 57.9251 43.1032 55.3483C43.1316 53.0979 43.1459 50.8475 43.1032 48.5971C43.0834 47.7532 43.3418 47.2693 44.0548 46.7686C46.6878 44.9177 48.0256 42.3297 48.0057 38.85Z" fill="#FD01CC"/>
</svg>
