<svg width="26" height="26" viewBox="0 0 26 26" fill="none" xmlns="http://www.w3.org/2000/svg">
<path d="M13.0006 26C10.2667 26 7.53228 26 4.79731 26C2.48576 26 0.736269 24.6634 0.137671 22.4272C0.04632 22.0605 0.00210219 21.6837 0.00609156 21.3058C-0.00203052 15.7695 -0.00203052 10.2333 0.00609156 4.69703C0.00609156 2.04421 2.05692 0.00609004 4.7169 0.00365402C10.2399 -0.00121801 15.7629 -0.00121801 21.2859 0.00365402C23.9662 0.00365402 25.9968 2.04827 25.9968 4.736C26.0011 10.2457 26.0011 15.7549 25.9968 21.2636C25.9968 23.9684 23.9573 25.9951 21.2437 25.9984C18.4963 25.9995 15.7486 26 13.0006 26ZM12.0625 1.86476H11.6523C9.35217 1.86476 7.05091 1.86476 4.74858 1.86476C3.05431 1.86476 1.8628 3.05516 1.86199 4.74738C1.86199 10.2414 1.86199 15.736 1.86199 21.2311C1.86199 22.9509 3.047 24.134 4.76644 24.1365C7.06716 24.1397 9.36841 24.1397 11.6702 24.1365C11.7985 24.1365 11.9277 24.121 12.0617 24.1121L12.0625 1.86476ZM24.1368 12.0644V11.6405C24.1368 9.35226 24.1368 7.06404 24.1368 4.77581C24.1368 3.05274 22.9534 1.86882 21.2348 1.86558C18.933 1.86233 16.6317 1.86233 14.331 1.86558C14.2019 1.86558 14.0735 1.88101 13.9371 1.88913C13.929 1.99712 13.92 2.0629 13.92 2.13273C13.92 5.32797 13.9241 8.52321 13.9127 11.7144C13.9127 12.0392 14.037 12.0879 14.3188 12.0871C17.4458 12.079 20.5734 12.0771 23.7015 12.0814C23.8322 12.0806 23.9646 12.0692 24.1368 12.0619V12.0644ZM24.1368 13.919H23.6828C20.5826 13.919 17.4824 13.9255 14.3814 13.9109C14.0053 13.9109 13.9078 14.0148 13.9095 14.3859C13.9241 17.4861 13.9176 20.5864 13.9176 23.6874V24.1324H14.3464C16.6482 24.1324 18.9495 24.1324 21.2502 24.1324C22.9437 24.1324 24.1303 22.9404 24.1344 21.2449C24.1384 19.5494 24.1344 17.8345 24.1344 16.1293L24.1368 13.919Z" fill="#303030"/>
</svg>
