<svg width="14" height="20" viewBox="0 0 14 20" fill="none" xmlns="http://www.w3.org/2000/svg">
<path d="M13.8959 13.0498C13.9721 16.2442 11.6714 18.909 9.02036 19.689C4.74931 20.9455 1.04032 18.2145 0.210967 14.7266C-0.269284 12.7076 0.0685783 10.8184 1.24329 9.106C2.59661 7.13254 3.97741 5.17656 4.96477 2.98577C5.26641 2.31504 5.52058 1.6212 5.77164 0.928617C6.09326 0.0386852 7.02067 -0.287935 7.70763 0.287242C7.88727 0.442766 8.02239 0.643191 8.0992 0.868039C8.8661 3.20247 10.077 5.30209 11.4466 7.32364C11.9462 8.06431 12.4745 8.78937 12.9454 9.55065C13.5965 10.5995 13.9268 11.8157 13.8959 13.0498ZM4.91231 16.5015C6.54229 16.5015 7.37039 15.112 6.73089 13.9354C6.32121 13.1818 5.90174 12.4334 5.4725 11.6902C5.44284 11.6452 5.40352 11.6073 5.35739 11.5793C5.31127 11.5513 5.2595 11.534 5.20583 11.5285C5.11715 11.5285 4.99912 11.6228 4.9504 11.7077C4.54947 12.4072 4.17039 13.1191 3.76383 13.8167C3.42534 14.4013 3.36351 14.9933 3.68951 15.591C4.01551 16.1886 4.52823 16.4952 4.91231 16.5015Z" fill="#303030"/>
</svg>
