<svg width="8" height="13" viewBox="0 0 8 13" fill="none" xmlns="http://www.w3.org/2000/svg">
<path opacity="0.5" d="M7.26946 5.73054L1.85725 0.318337C1.75633 0.217412 1.63651 0.137354 1.50465 0.0827334C1.37278 0.0281131 1.23145 0 1.08872 0C0.800462 0 0.524012 0.114509 0.320184 0.318337C0.219259 0.419262 0.139201 0.539078 0.0845802 0.670943C0.0299598 0.802808 0.00184781 0.944141 0.00184781 1.08687C0.00184781 1.37513 0.116357 1.65158 0.320184 1.8554L4.97468 6.49908L0.320184 11.1428C0.218729 11.2434 0.138202 11.3631 0.0832475 11.495C0.0282934 11.6269 0 11.7684 0 11.9113C0 12.0542 0.0282934 12.1957 0.0832475 12.3276C0.138202 12.4595 0.218729 12.5792 0.320184 12.6798C0.420811 12.7813 0.54053 12.8618 0.672436 12.9168C0.804341 12.9717 0.945823 13 1.08872 13C1.23161 13 1.37309 12.9717 1.505 12.9168C1.63691 12.8618 1.75662 12.7813 1.85725 12.6798L7.26946 7.26761C7.37091 7.16698 7.45144 7.04726 7.5064 6.91536C7.56135 6.78345 7.58964 6.64197 7.58964 6.49908C7.58964 6.35618 7.56135 6.2147 7.5064 6.0828C7.45144 5.95089 7.37091 5.83117 7.26946 5.73054Z" fill="#303030"/>
</svg>
