<svg width="20" height="20" viewBox="0 0 20 20" fill="none" xmlns="http://www.w3.org/2000/svg">
<path d="M6.73349 10.0123C5.67183 8.9507 4.65264 7.94096 3.6372 6.9281C2.63549 5.92897 1.63504 4.92985 0.635828 3.93073C-0.214747 3.07772 -0.211 2.07485 0.641449 1.21748C0.854405 1.00392 1.06674 0.789731 1.28157 0.578042C2.0547 -0.184415 3.09263 -0.197529 3.86015 0.56805C5.82234 2.51884 7.77912 4.47546 9.73049 6.4379C9.81166 6.52893 9.88796 6.62418 9.95906 6.72328C10.084 6.61025 10.1664 6.53594 10.2445 6.45976C12.1792 4.52562 14.1135 2.59128 16.0473 0.656722C16.9179 -0.213765 17.9096 -0.217512 18.7827 0.649228C19.0044 0.868411 19.228 1.08635 19.4453 1.31052C20.1747 2.05987 20.1834 3.1002 19.4453 3.84518C17.4885 5.8147 15.5259 7.77944 13.5575 9.73939C13.4775 9.81931 13.4007 9.90237 13.2845 10.0241C13.8941 10.6217 14.4973 11.2056 15.0919 11.7982C16.5074 13.2078 17.9202 14.6195 19.3304 16.0332C20.2259 16.9293 20.2228 17.9066 19.3235 18.8139C19.118 19.0206 18.9126 19.2267 18.7046 19.4309C17.9446 20.1802 16.9048 20.189 16.1485 19.4365C14.1863 17.4857 12.2295 15.5303 10.2782 13.5704C10.197 13.4892 10.1258 13.3993 10.0253 13.285C9.92346 13.3812 9.84165 13.4543 9.76483 13.5311L3.9838 19.3122C3.06765 20.2283 2.09904 20.2289 1.18165 19.316C0.989924 19.1249 0.800074 18.9332 0.608975 18.7415C-0.194137 17.9341 -0.197884 16.9062 0.608975 16.0951C2.54869 14.1509 4.49069 12.2095 6.43498 10.2708C6.51242 10.1859 6.60796 10.1184 6.73349 10.0123Z" fill="#35339A"/>
</svg>
