<svg width="26" height="20" viewBox="0 0 26 20" fill="none" xmlns="http://www.w3.org/2000/svg">
<path d="M8.94286 13.0914C11.0707 10.9606 13.1552 8.8722 15.2446 6.78474C17.2389 4.78984 19.2334 2.79559 21.2283 0.801998C22.299 -0.267333 23.367 -0.267333 24.4324 0.801998C24.6185 0.987113 24.8036 1.17223 24.9877 1.35931C25.9832 2.36661 25.9901 3.4645 24.9966 4.46096C22.7838 6.6784 20.5696 8.89353 18.3542 11.1064C15.5971 13.8634 12.8375 16.6227 10.0752 19.3843C9.25696 20.2016 8.61004 20.2045 7.80165 19.3971C5.4713 17.0674 3.14096 14.7371 0.810623 12.4061C-0.272493 11.323 -0.272495 10.2635 0.824407 9.16366C1.03315 8.95393 1.23895 8.74321 1.45163 8.5384C2.36637 7.66108 3.47607 7.65222 4.37506 8.5453C5.76342 9.91691 7.13701 11.3023 8.51847 12.6808C8.63564 12.8059 8.7666 12.926 8.94286 13.0914Z" fill="#FD01CC"/>
</svg>
