<svg width="23" height="20" viewBox="0 0 23 20" fill="none" xmlns="http://www.w3.org/2000/svg">
<path d="M11.3911 11.4239V12.9074C11.3911 13.5384 11.3846 14.1701 11.3911 14.8011C11.3954 15.1234 11.3789 15.43 11.0523 15.6029C10.7258 15.7758 10.4442 15.6486 10.1641 15.4478C7.5315 13.5622 4.89629 11.6804 2.25845 9.80247C1.63889 9.36013 1.01648 8.91994 0.400489 8.47403C-0.126887 8.09314 -0.135463 7.60221 0.386911 7.22848C3.66979 4.88172 6.95339 2.53664 10.2377 0.193218C10.4892 0.013853 10.7479 -0.0740427 11.0359 0.0774529C11.3239 0.228949 11.3932 0.486204 11.3932 0.797771C11.3839 1.96329 11.3896 3.1288 11.3896 4.28789C12.1435 4.4551 12.8824 4.57373 13.5956 4.78454C17.8696 6.03938 20.6223 8.8542 21.9922 13.0568C22.6439 15.0577 22.8754 17.1171 22.8869 19.2102C22.8869 19.6697 22.6596 19.957 22.278 19.9963C21.9129 20.0349 21.6399 19.7712 21.5256 19.336C20.4665 15.3128 17.9654 12.7259 13.8922 11.7362C13.2033 11.5683 12.483 11.5254 11.777 11.4296C11.6485 11.4201 11.5197 11.4182 11.3911 11.4239ZM21.0668 14.9755L21.1475 14.9412C20.9482 14.2852 20.7738 13.6206 20.5458 12.9746C19.0373 8.69055 15.2942 5.89217 10.7594 5.6442C10.3306 5.62134 10.0769 5.37623 10.0726 4.94532C10.0641 4.07637 10.0726 3.2067 10.0676 2.33774C10.0676 2.2377 10.054 2.13837 10.0419 1.98473L1.83255 7.84446L10.0691 13.7242C10.0691 12.693 10.0691 11.7555 10.0691 10.8179C10.0691 10.2898 10.307 10.0319 10.8265 10.0612C11.7041 10.1126 12.588 10.1491 13.4534 10.2884C16.5412 10.785 19.0537 12.2578 20.9124 14.7997C20.9589 14.8626 21.0153 14.9176 21.0668 14.9755Z" fill="#737373"/>
</svg>
