<svg width="32" height="26" viewBox="0 0 32 26" fill="none" xmlns="http://www.w3.org/2000/svg">
<path d="M15.9586 25.5801C12.0124 25.5801 8.06558 25.5801 4.11808 25.5801C1.58326 25.5801 0.000999535 24.0018 0 21.476C0 17.162 0 12.8484 0 8.53503C0 6.06218 1.56427 4.47692 4.03912 4.44294C4.9387 4.43094 5.83828 4.42694 6.73786 4.44893C7.06471 4.45693 7.25163 4.33998 7.42055 4.07111C7.90032 3.31146 8.40809 2.57181 8.90286 1.82016C9.70848 0.596726 10.845 -0.000998284 12.3063 1.25148e-06C14.7718 1.25148e-06 17.2373 1.25148e-06 19.7028 1.25148e-06C21.1442 1.25148e-06 22.2696 0.592728 23.0713 1.79217C23.543 2.49784 24.0368 3.19152 24.4646 3.92118C24.7095 4.33998 25.0024 4.46293 25.4711 4.45193C26.4847 4.42594 27.5052 4.41295 28.5157 4.48792C30.4468 4.63185 31.9571 6.17713 31.9721 8.10323C32.0094 12.7164 32.0094 17.3296 31.9721 21.9428C31.9531 23.9958 30.2489 25.5681 28.1549 25.5751C24.0858 25.5901 20.0267 25.5801 15.9586 25.5801ZM15.9776 5.25056C11.1638 5.27655 7.38656 9.10776 7.38756 13.9085C7.3992 16.1837 8.31329 18.3612 9.92911 19.963C11.5449 21.5648 13.7304 22.4598 16.0056 22.4516C20.8033 22.4745 24.6225 18.5704 24.5926 13.7886C24.5636 9.05978 20.6944 5.22557 15.9776 5.25056ZM26.9015 7.58248C26.6526 7.58248 26.4017 7.56948 26.1548 7.58248C25.8788 7.59226 25.6163 7.70407 25.418 7.89628C25.2197 8.08849 25.0997 8.34743 25.0813 8.62299C25.0463 9.23271 25.4292 9.74447 26.0449 9.80044C26.6072 9.84892 27.1725 9.85093 27.7351 9.80644C28.3418 9.76046 28.7186 9.28968 28.7076 8.68996C28.7064 8.40507 28.596 8.13149 28.399 7.92562C28.2021 7.71976 27.9337 7.5973 27.6491 7.58348C27.4013 7.57048 27.1514 7.58348 26.9015 7.58248Z" fill="white"/>
<path d="M15.9286 18.6203C13.2119 18.5573 11.1508 16.4213 11.2088 13.7226C11.2658 11.0828 13.4947 9.00479 16.1915 9.07675C18.7973 9.14572 20.8533 11.3487 20.7893 13.9985C20.7174 16.5803 18.5084 18.6803 15.9286 18.6203Z" fill="white"/>
</svg>
