<svg width="26" height="26" viewBox="0 0 26 26" fill="none" xmlns="http://www.w3.org/2000/svg">
<path fill-rule="evenodd" clip-rule="evenodd" d="M24.96 13.2831C24.96 12.3997 24.8807 11.5503 24.7335 10.7348H13V15.5539H19.7048C19.416 17.1112 18.5383 18.4307 17.2188 19.3141V22.44H21.2451C23.6009 20.2711 24.96 17.0772 24.96 13.2831Z" fill="#4285F4"/>
<path fill-rule="evenodd" clip-rule="evenodd" d="M12.9999 25.4581C16.3637 25.4581 19.1838 24.3425 21.2451 22.4398L17.2188 19.3139C16.1032 20.0614 14.6761 20.5031 12.9999 20.5031C9.75508 20.5031 7.00858 18.3116 6.02891 15.3669H1.86669V18.5947C3.91665 22.6663 8.12983 25.4581 12.9999 25.4581Z" fill="#34A853"/>
<path fill-rule="evenodd" clip-rule="evenodd" d="M6.02898 15.3671C5.77981 14.6196 5.63824 13.8212 5.63824 13C5.63824 12.1789 5.77981 11.3805 6.02898 10.633V7.40512H1.86676C1.02299 9.087 0.54165 10.9897 0.54165 13C0.54165 15.0104 1.02299 16.9131 1.86676 18.595L6.02898 15.3671Z" fill="#FBBC05"/>
<path fill-rule="evenodd" clip-rule="evenodd" d="M12.9999 5.49668C14.829 5.49668 16.4713 6.12526 17.7624 7.35977L21.3357 3.78649C19.1781 1.77617 16.358 0.541666 12.9999 0.541666C8.12983 0.541666 3.91665 3.33346 1.86669 7.40507L6.02891 10.6329C7.00858 7.68821 9.75508 5.49668 12.9999 5.49668Z" fill="#EA4335"/>
</svg>
