<svg width="21" height="20" viewBox="0 0 21 20" fill="none" xmlns="http://www.w3.org/2000/svg">
<path d="M10.012 2.67299e-06C15.5225 0.00333512 20.0093 4.4968 20.0053 10.0093C20.0013 15.5219 15.5052 20.0067 9.99333 20C4.48147 19.9933 -0.00399626 15.5019 2.6718e-06 9.99067C0.0040016 4.47947 4.5008 -0.00399626 10.012 2.67299e-06ZM16.6102 4.44881L4.44548 16.6056C7.60531 19.4082 12.8706 19.4855 16.2263 16.0197C19.5821 12.554 19.2682 7.3767 16.6102 4.44881ZM5.80579 5.80179H5.07998C4.83604 5.80179 4.59144 5.79445 4.34684 5.80179C3.85831 5.82111 3.55439 6.27499 3.743 6.71354C3.87097 7.0108 4.12224 7.1321 4.43882 7.13143C4.8887 7.13143 5.33858 7.13143 5.80245 7.13143C5.80245 7.62597 5.79246 8.06918 5.80779 8.51173C5.8103 8.66488 5.85231 8.81479 5.92975 8.94695C6.10037 9.20888 6.3683 9.28019 6.66289 9.18955C6.97681 9.09291 7.12543 8.85164 7.13276 8.53572C7.14343 8.07451 7.13276 7.61264 7.13276 7.13143C7.61064 7.13143 8.04252 7.1361 8.47374 7.13143C8.92362 7.12543 9.22621 6.85151 9.22754 6.46161C9.22887 6.07171 8.93695 5.80445 8.47707 5.80112C8.03719 5.80112 7.59731 5.80112 7.13276 5.80112C7.13276 5.31858 7.13743 4.8767 7.13276 4.43482C7.1281 3.99293 6.84951 3.68968 6.45695 3.68968C6.06438 3.68968 5.80712 3.98094 5.80445 4.44748C5.80112 4.88936 5.80379 5.32858 5.80379 5.80179H5.80579Z" fill="#303030"/>
<path d="M13.5282 14.2002C12.8517 14.2002 12.1752 14.2002 11.4987 14.2002C11.0622 14.1969 10.7789 13.9336 10.7749 13.5477C10.7709 13.1618 11.0609 12.8719 11.4841 12.8699C12.8593 12.8619 14.2345 12.8619 15.6097 12.8699C16.0275 12.8699 16.3261 13.1745 16.3201 13.5504C16.3141 13.9263 16.0229 14.1975 15.591 14.2002C14.9032 14.2035 14.2154 14.2002 13.5282 14.2002Z" fill="#303030"/>
</svg>
