<svg width="20" height="20" viewBox="0 0 20 20" fill="none" xmlns="http://www.w3.org/2000/svg">
<path d="M10.0151 0.000208582C15.599 0.035493 20.0419 4.51887 19.9998 10.0743C19.9799 12.7264 18.9073 15.262 17.0179 17.1232C15.1285 18.9844 12.5771 20.0189 9.92497 19.999C7.27287 19.9791 4.7373 18.9064 2.87606 17.017C1.01482 15.1276 -0.0196285 12.5763 0.000282188 9.92415C0.0385696 4.41077 4.52495 -0.0350759 10.0151 0.000208582ZM11.6667 2.22088C9.37168 1.56023 5.76441 2.26818 3.55876 5.24558C1.36662 8.20347 1.47772 12.2402 3.84554 15.1147C6.08572 17.8354 9.59014 18.4119 11.6659 17.7693C6.86198 13.8873 6.69081 6.25231 11.6712 2.22088H11.6667Z" fill="#303030"/>
</svg>
