<svg width="26" height="26" viewBox="0 0 26 26" fill="none" xmlns="http://www.w3.org/2000/svg">
<path d="M12.985 19.5368C9.39061 19.5035 6.43322 16.5307 6.46734 12.9818C6.50146 9.38255 9.47348 6.43082 13.0207 6.46738C16.624 6.50476 19.5701 9.46786 19.536 13.02C19.501 16.6217 16.5379 19.5693 12.985 19.5368ZM17.7315 13.0037C17.7315 10.338 15.6694 8.27271 13.0029 8.2719C10.3363 8.27109 8.27265 10.3348 8.27265 13.0005C8.27265 15.6662 10.3355 17.7315 13.002 17.7323C15.6686 17.7331 17.7306 15.6695 17.7315 13.0037Z" fill="#303030"/>
<path d="M2.21565 13.895C1.78341 13.895 1.35118 13.9015 0.915695 13.895C0.385963 13.8845 0.00409941 13.5123 3.70532e-05 13.0159C-0.00104167 12.8975 0.0214433 12.78 0.0661793 12.6703C0.110915 12.5606 0.177009 12.4609 0.260624 12.377C0.344239 12.2931 0.443702 12.2266 0.553231 12.1815C0.66276 12.1363 0.78017 12.1134 0.898631 12.1141C1.7761 12.1027 2.65384 12.1027 3.53186 12.1141C3.65012 12.1131 3.76737 12.1358 3.87673 12.1808C3.98609 12.2258 4.08534 12.2923 4.16862 12.3762C4.25191 12.4602 4.31754 12.56 4.36167 12.6697C4.4058 12.7794 4.42753 12.8969 4.42557 13.0151C4.41907 13.5083 4.03233 13.8845 3.50666 13.895C3.08012 13.9015 2.64788 13.895 2.21565 13.895Z" fill="#303030"/>
<path d="M12.1083 2.23767C12.1083 1.80544 12.1026 1.3732 12.1083 0.937717C12.1172 0.391736 12.5088 -0.00800308 13.0125 0.000121644C13.5 0.00824636 13.8851 0.399033 13.89 0.922265C13.8987 1.78619 13.8987 2.64986 13.89 3.51325C13.8851 4.03729 13.5 4.42322 13.0077 4.42809C12.5153 4.43297 12.1294 4.04785 12.1074 3.52868C12.1074 3.50187 12.1074 3.47506 12.1074 3.44743L12.1083 2.23767Z" fill="#303030"/>
<path d="M23.7509 13.895C23.3324 13.895 22.914 13.9015 22.4956 13.895C21.9683 13.8853 21.5808 13.5132 21.571 13.0208C21.5613 12.513 21.9553 12.1173 22.5013 12.1125C23.3511 12.1049 24.2012 12.1049 25.0516 12.1125C25.6017 12.1125 26.0006 12.5024 25.999 13.0062C25.9974 13.5099 25.5976 13.8836 25.0459 13.8999H23.7509V13.895Z" fill="#303030"/>
<path d="M13.8941 23.7868C13.8941 24.2183 13.9015 24.6505 13.8941 25.0819C13.8828 25.6043 13.5001 25.9951 13.011 26C12.8929 26 12.7761 25.9766 12.6671 25.9312C12.5581 25.8858 12.4592 25.8192 12.3761 25.7354C12.293 25.6515 12.2274 25.552 12.183 25.4427C12.1385 25.3333 12.1162 25.2162 12.1173 25.0982C12.1064 24.2218 12.1064 23.3446 12.1173 22.4666C12.1163 22.3482 12.139 22.2309 12.1841 22.1215C12.2291 22.0121 12.2957 21.9128 12.3797 21.8295C12.4638 21.7462 12.5636 21.6806 12.6735 21.6365C12.7833 21.5924 12.9008 21.5708 13.0191 21.5729C13.5115 21.5802 13.8828 21.9669 13.8998 22.4917C13.8998 22.5056 13.8998 22.5186 13.8998 22.5324C13.8966 22.9505 13.8947 23.3687 13.8941 23.7868Z" fill="#303030"/>
<path d="M22.4763 21.5379C22.443 21.9255 22.2748 22.2334 21.9498 22.3261C21.6833 22.4024 21.2657 22.4195 21.0894 22.2643C20.3448 21.5995 19.6346 20.8971 18.9615 20.16C18.6625 19.835 18.7625 19.3232 19.0842 19.0307C19.4059 18.7382 19.9072 18.6951 20.2217 18.9982C20.9066 19.6481 21.5712 20.3233 22.2236 21.0066C22.356 21.1407 22.3958 21.3584 22.4763 21.5379Z" fill="#303030"/>
<path d="M7.20588 6.2911C7.16851 6.67459 7.00926 6.94108 6.69565 7.10357C6.36335 7.28069 6.02049 7.25795 5.75644 7.00608C5.0634 6.34554 4.38255 5.67038 3.72526 4.9749C3.41489 4.64585 3.48151 4.10961 3.8065 3.80493C3.96084 3.64992 4.16977 3.56158 4.38849 3.55885C4.60721 3.55611 4.8183 3.63921 4.97646 3.79031C5.64919 4.43379 6.30702 5.09217 6.94995 5.76543C7.07589 5.9003 7.12139 6.11398 7.20588 6.2911Z" fill="#303030"/>
<path d="M18.7844 6.30729C18.8941 6.10093 18.9648 5.85881 19.12 5.6955C19.7131 5.06827 20.3281 4.46137 20.9464 3.85851C21.3397 3.47584 21.8548 3.46934 22.2106 3.81626C22.5665 4.16319 22.5641 4.69699 22.1903 5.08129C21.5788 5.7096 20.9584 6.32978 20.329 6.94184C20.0446 7.21889 19.6977 7.3042 19.328 7.12058C19.0127 6.96458 18.8421 6.70215 18.7844 6.30729Z" fill="#303030"/>
<path d="M7.2164 19.7237C7.10184 19.9268 7.02141 20.1624 6.86542 20.3274C6.27962 20.9432 5.67433 21.5404 5.0666 22.1343C4.66037 22.5324 4.12901 22.5405 3.77314 22.1709C3.43109 21.8182 3.44816 21.295 3.82677 20.905C4.43125 20.2876 5.04222 19.6769 5.6597 19.0729C5.94325 18.795 6.28693 18.7 6.65904 18.8763C6.99378 19.0347 7.16846 19.3093 7.2164 19.7237Z" fill="#303030"/>
</svg>
