<svg width="78" height="78" viewBox="0 0 78 78" fill="none" xmlns="http://www.w3.org/2000/svg">
<g opacity="0.5">
<path d="M74.3031 46.5275C65.0074 40.1445 54.533 42.4751 48.5275 48.4441C42.522 54.4131 40.094 64.9215 46.5403 74.3122C45.6003 74.395 44.7406 74.5557 43.8833 74.5338C37.3956 74.3998 30.8982 74.4047 24.4275 74.0102C21.1057 73.8105 17.6378 73.3721 14.5668 72.1861C6.95399 69.2491 2.44619 63.5456 1.26506 55.3531C-0.0172638 46.3098 -0.32588 37.1549 0.344504 28.0458C0.641614 23.8619 0.882713 19.5221 2.15639 15.5842C4.82308 7.33814 10.7677 2.51131 19.4716 1.25712C28.4759 -0.0242955 37.5925 -0.327227 46.6621 0.35361C51.0018 0.670203 55.4974 0.989229 59.5693 2.35301C67.5012 5.00996 72.1064 10.845 73.3971 19.2493C74.6148 27.1861 74.6878 35.1594 74.5636 43.1521C74.5636 43.6002 74.5515 44.0459 74.5149 44.4915C74.4662 45.1393 74.3859 45.7774 74.3031 46.5275ZM37.437 26.6527C43.5643 26.6527 49.6916 26.6771 55.8189 26.6406C58.3029 26.626 60.0442 24.8263 60.0588 22.4201C60.0734 20.014 58.242 18.1388 55.7605 18.0926C54.5038 18.0706 53.2448 18.0926 51.9857 18.0926C41.0705 18.0926 30.1546 18.0926 19.2378 18.0926C17.1458 18.0926 15.5677 19.0983 14.9053 20.8177C13.8216 23.6329 15.7601 26.6113 18.8019 26.6381C25.0168 26.6893 31.2269 26.6503 37.437 26.6527ZM29.7195 36.0945C26.271 36.0945 22.821 36.0945 19.3693 36.0945C16.6344 36.0945 14.7008 37.7993 14.635 40.2516C14.5644 42.8063 16.2789 44.6815 19.0454 44.7083C26.189 44.7846 33.3327 44.7846 40.4763 44.7083C43.2112 44.6766 44.9549 42.7405 44.8599 40.2175C44.7747 37.8407 42.8167 36.1067 40.1889 36.0994C36.6999 36.0913 33.2101 36.0897 29.7195 36.0945Z" fill="#FD01CC"/>
<path d="M62.5281 46.9707C71.1979 47.0121 78.0485 53.9674 77.9998 62.6786C77.9486 71.2022 70.9032 78.0504 62.2529 77.9944C53.7853 77.9408 46.8933 70.8808 46.9712 62.3401C46.997 58.2393 48.6502 54.3166 51.5675 51.4344C54.4848 48.5523 58.4273 46.9467 62.5281 46.9707ZM65.3312 66.5118C65.3312 65.2138 65.3482 63.9133 65.3312 62.6153C65.3044 61.0006 64.2888 59.8487 62.8082 59.705C61.2276 59.554 59.7762 60.4795 59.6909 62.0868C59.5355 64.9586 59.542 67.8368 59.7104 70.7079C59.7981 72.2397 61.3226 73.2187 62.7546 73.0482C64.2694 72.868 65.2946 71.7404 65.3287 70.1623C65.3506 68.9471 65.3312 67.7295 65.3312 66.5118ZM65.3312 54.8222C65.3312 52.3455 64.8977 51.8998 62.4429 51.8998C60.0538 51.8998 59.5205 52.438 59.5205 54.8222C59.5205 57.0919 60.1439 57.7178 62.399 57.7446C64.7637 57.7738 65.3287 57.2088 65.3287 54.8295L65.3312 54.8222Z" fill="#FD01CC"/>
</g>
</svg>
