<svg width="15" height="20" viewBox="0 0 15 20" fill="none" xmlns="http://www.w3.org/2000/svg">
<path d="M14.2888 12.8449C14.2941 14.4999 13.7235 16.1052 12.6747 17.3855C11.626 18.6659 10.1644 19.5414 8.54074 19.862C4.65851 20.6315 0.887623 18.1033 0.138871 14.2525C-0.14664 12.7764 0.03323 11.3331 0.449362 9.9234C1.44865 6.53653 3.15601 3.5251 5.4458 0.847723C6.42439 -0.294321 7.84338 -0.270766 8.84909 0.847723C9.07893 1.10397 9.30306 1.36735 9.51148 1.64144C11.4058 4.12753 12.9376 6.80848 13.7941 9.8299C14.0711 10.8049 14.191 11.8242 14.383 12.8228L14.2888 12.8449ZM12.5757 10.7036C12.5407 10.5537 12.5193 10.438 12.4865 10.3253C11.5586 7.15323 9.95117 4.35308 7.81554 1.84701C7.33589 1.28455 6.95901 1.29241 6.46436 1.85629C4.87907 3.66714 3.63781 5.69927 2.68134 7.89984C2.29091 8.79635 1.9954 9.73496 1.63923 10.7036H12.5757Z" fill="#303030"/>
</svg>
