<svg width="24" height="24" viewBox="0 0 24 24" fill="none" xmlns="http://www.w3.org/2000/svg">
<path d="M12.0028 5.18674C13.8018 5.19289 15.5253 5.91067 16.7968 7.18332C18.0683 8.45596 18.7846 10.18 18.7891 11.979C18.7891 15.7206 15.7008 18.8037 11.9682 18.7841C10.1772 18.7613 8.46749 18.0326 7.21063 16.7564C5.95378 15.4802 5.25131 13.7595 5.25587 11.9683C5.26042 10.1771 5.97163 8.46007 7.23496 7.19026C8.49829 5.92044 10.2117 5.20046 12.0028 5.18674ZM12.7253 6.67075V17.2806C14.6656 17.149 17.1713 15.3402 17.36 12.3406C17.5637 9.09222 15.016 6.87673 12.7253 6.67075Z" fill="#303030"/>
<path d="M21.0092 3.68839C20.8649 3.94474 20.7965 4.15223 20.6596 4.29432C20.0266 4.95062 19.3816 5.59264 18.7291 6.23165C18.4118 6.54288 17.9645 6.55566 17.6916 6.28352C17.4029 5.99484 17.406 5.57159 17.7232 5.24832C18.3712 4.58977 19.0313 3.94324 19.6823 3.28769C19.9229 3.04487 20.2236 2.96969 20.5003 3.1223C20.7017 3.23281 20.8288 3.47789 21.0092 3.68839Z" fill="#303030"/>
<path d="M6.57588 18.1082C6.44206 18.3623 6.38493 18.5638 6.25713 18.6961C5.60559 19.3697 4.94427 20.0327 4.27319 20.6853C3.97248 20.98 3.52818 20.9777 3.26205 20.7139C2.98389 20.4372 2.98915 19.9936 3.29813 19.6771C3.94466 19.0171 4.60096 18.3676 5.25275 17.7143C5.48881 17.4782 5.78501 17.3812 6.06843 17.5511C6.26915 17.6699 6.39846 17.906 6.57588 18.1082Z" fill="#303030"/>
<path d="M6.5481 5.86329C6.40827 6.03695 6.29551 6.30458 6.10681 6.3775C5.89782 6.45944 5.53095 6.46095 5.38586 6.32864C4.62957 5.64076 3.91238 4.90928 3.20571 4.17104C2.96814 3.92445 3.02603 3.48166 3.25983 3.24936C3.49364 3.01706 3.93643 2.96368 4.18226 3.20125C4.91224 3.9004 5.62267 4.6206 6.32708 5.34606C6.42782 5.45056 6.45187 5.63099 6.5481 5.86329Z" fill="#303030"/>
<path d="M20.2506 21.0048C19.9995 20.8545 19.7995 20.7793 19.6537 20.6395C19.0071 20.0147 18.3756 19.3765 17.7442 18.7352C17.4036 18.3886 17.3938 17.9661 17.6975 17.6737C18.0013 17.3813 18.3997 17.4046 18.732 17.7316C19.3913 18.3789 20.0408 19.0359 20.6926 19.6922C20.9302 19.9313 21.0039 20.2373 20.8325 20.5132C20.7099 20.7094 20.4656 20.8297 20.2506 21.0048Z" fill="#303030"/>
<path d="M21.9142 11.2753C22.351 11.2753 22.7886 11.2693 23.2253 11.2753C23.6982 11.2828 23.9899 11.5445 23.9997 11.9519C24.0102 12.3804 23.7147 12.6856 23.2381 12.6917C22.351 12.7042 21.4644 12.7042 20.5783 12.6917C20.1273 12.6849 19.8168 12.3819 19.8123 11.9835C19.8078 11.5655 20.1197 11.2791 20.6031 11.2716C21.0399 11.2701 21.4767 11.2753 21.9142 11.2753Z" fill="#303030"/>
<path d="M11.2805 21.8897C11.2805 21.4529 11.2737 21.0154 11.2805 20.5786C11.2895 20.1147 11.5646 19.8155 11.9736 19.8088C12.3826 19.802 12.6915 20.105 12.6983 20.5553C12.7133 21.4539 12.7133 22.3528 12.6983 23.2519C12.6908 23.7082 12.3886 23.9977 11.9774 23.9947C11.5661 23.9916 11.2955 23.7045 11.2782 23.2384C11.2782 23.2256 11.2782 23.2136 11.2782 23.2008L11.2805 21.8897Z" fill="#303030"/>
<path d="M11.2803 2.04955C11.2803 1.61126 11.2735 1.17297 11.2803 0.734689C11.2886 0.257311 11.5194 0.00847204 11.9411 0.000202503C12.414 -0.00806704 12.6929 0.237013 12.6989 0.721908C12.7129 1.61051 12.7129 2.49911 12.6989 3.38771C12.6921 3.86358 12.3756 4.1688 11.9539 4.15226C11.5457 4.13648 11.2863 3.83953 11.2773 3.36365C11.275 2.92311 11.2803 2.48482 11.2803 2.04955Z" fill="#303030"/>
<path d="M2.09896 11.2753C2.52446 11.2753 2.94997 11.2693 3.37698 11.2753C3.84909 11.2828 4.14604 11.5497 4.15657 11.9587C4.16785 12.3812 3.86187 12.6886 3.38299 12.6954C2.50692 12.7064 1.62985 12.7064 0.751776 12.6954C0.255604 12.6894 0 12.4255 0 11.9639C0 11.5129 0.248086 11.2821 0.744258 11.2745C1.19758 11.2693 1.64864 11.2753 2.09896 11.2753Z" fill="#303030"/>
</svg>
