<svg width="26" height="19" viewBox="0 0 26 19" fill="none" xmlns="http://www.w3.org/2000/svg">
<path d="M9.0822 2.51233V15.6506C9.53956 15.6506 9.98233 15.6506 10.4251 15.6506C11.1856 15.662 11.6451 16.1392 11.6419 16.9008C11.6388 17.6623 11.1773 18.1332 10.4084 18.1353C8.65402 18.1416 6.89996 18.1416 5.14624 18.1353C4.39093 18.1353 3.91587 17.63 3.92316 16.8851C3.93045 16.1402 4.40447 15.6662 5.17333 15.6527C6.5506 15.6277 6.55061 15.6277 6.55061 14.2504C6.55061 10.552 6.54227 6.85355 6.55998 3.15512C6.55998 2.66755 6.44642 2.48003 5.92656 2.50191C4.98893 2.54358 4.0513 2.53524 3.11367 2.50191C2.66986 2.48732 2.46254 2.59984 2.51776 3.07698C2.54016 3.37174 2.54016 3.66777 2.51776 3.96252C2.49171 4.62199 2.02185 5.08351 1.34989 5.11893C0.677919 5.15435 0.0955483 4.76472 0.0486669 4.11254C-0.0195352 3.28034 -0.0160458 2.44381 0.0590888 1.6122C0.157019 0.654777 0.913372 0.0140644 1.88121 0.010939C5.80675 -0.00364633 9.7309 -0.00364633 13.6537 0.010939C14.7517 0.0161481 15.4862 0.740205 15.5487 1.82994C15.5837 2.52404 15.5837 3.21946 15.5487 3.91356C15.5164 4.66054 15.0393 5.09914 14.3131 5.11164C13.587 5.12414 13.1161 4.68971 13.0421 3.94481C13.0317 3.84063 13.0338 3.73645 13.0317 3.63227C13.0192 2.50295 13.0192 2.50295 11.8659 2.50295L9.0822 2.51233Z" fill="#35339A"/>
<path d="M19.5055 7.82555C20.964 7.82555 22.4226 7.82555 23.8811 7.82555C25.2 7.82555 25.9647 8.56628 25.9918 9.87167C26.0012 10.2707 26.0064 10.6707 25.9856 11.0687C25.947 11.8084 25.4709 12.2741 24.7635 12.2907C24.0561 12.3074 23.5498 11.8626 23.4696 11.1364C23.379 10.3144 23.379 10.3144 22.5538 10.3144C22.085 10.3144 21.6162 10.2884 21.1495 10.3321C21.0151 10.3457 20.7963 10.5613 20.7942 10.6864C20.7692 12.2137 20.7869 13.7409 20.7723 15.2703C20.7671 15.7808 21.1193 15.6422 21.3839 15.6475C22.2111 15.6652 22.707 16.0944 22.7383 16.8362C22.7664 17.5967 22.2705 18.1343 21.5079 18.1395C20.1882 18.1478 18.8686 18.1478 17.549 18.1395C16.7801 18.1395 16.3155 17.6613 16.3103 16.9049C16.3051 16.1486 16.7666 15.6714 17.5323 15.6548C18.273 15.636 18.273 15.636 18.2741 14.9182C18.2741 13.5638 18.2626 12.2095 18.2803 10.8551C18.2803 10.4551 18.1626 10.2873 17.7438 10.3103C17.2234 10.3426 16.7015 10.3426 16.1811 10.3103C15.7123 10.279 15.5466 10.4217 15.556 10.9145C15.5727 11.8376 15.0143 12.3585 14.186 12.2845C13.5474 12.2272 13.114 11.8396 13.0619 11.1937C13.0145 10.6579 13.0145 10.1189 13.0619 9.58309C13.1661 8.50481 13.9339 7.83805 15.0268 7.8318C16.5197 7.8193 18.0147 7.82659 19.5055 7.82555Z" fill="#35339A"/>
</svg>
