<svg width="21" height="21" viewBox="0 0 21 21" fill="none" xmlns="http://www.w3.org/2000/svg">
<path d="M2.15573 8.56896C2.14121 5.87997 3.12386 3.64761 5.16421 1.92676C6.79228 0.555235 8.6995 -0.0627546 10.8286 0.00501477C15.2562 0.143781 19.0045 3.9429 18.8463 8.56815C19.0271 8.5859 19.211 8.60123 19.3942 8.62301C20.2203 8.71902 20.9069 9.29425 20.944 10.118C21.0069 11.4984 21.0367 12.8917 20.9246 14.2664C20.8246 15.4968 20.0138 16.2616 18.827 16.5891C18.6213 16.6464 18.5261 16.7215 18.4478 16.9231C17.4555 19.4806 15.2481 20.9804 12.4962 20.9837C12.1872 20.9837 11.8774 20.9941 11.5684 20.9796C11.3577 20.9775 11.1559 20.8944 11.0047 20.7475C10.8536 20.6006 10.7649 20.4012 10.7568 20.1906C10.7463 19.7509 11.0997 19.404 11.5781 19.3685C12.3647 19.3104 13.1755 19.3451 13.9323 19.1587C15.2505 18.836 16.1791 17.9607 16.802 16.694C16.6156 16.6553 16.4615 16.6351 16.3179 16.5916C15.6418 16.3931 15.1077 15.7622 15.094 15.0506C15.0698 13.4516 15.0658 11.8509 15.094 10.2519C15.1085 9.39994 15.7612 8.74161 16.6075 8.63027C16.7923 8.60607 16.9787 8.59316 17.2102 8.56976C17.232 6.10425 16.2663 4.15669 14.2526 2.76097C12.0444 1.23535 9.09725 1.22809 6.84311 2.68029C4.50749 4.193 3.62165 6.79889 3.82979 8.56976C4.03714 8.59074 4.25013 8.60446 4.46069 8.63592C5.22391 8.75048 5.87578 9.39026 5.89111 10.1591C5.92392 11.8114 5.92392 13.4645 5.89111 15.1184C5.87578 15.8856 5.21019 16.5657 4.4494 16.6166C3.71293 16.6747 2.97285 16.6698 2.23722 16.602C1.04883 16.4746 0.0508466 15.3047 0.020189 14.0421C-0.00966175 12.8062 -0.00239977 11.5678 0.0161561 10.331C0.0306781 9.41204 0.701108 8.71741 1.62245 8.61495C1.78703 8.60042 1.95646 8.58752 2.15573 8.56896ZM4.29611 12.6472C4.29611 11.9494 4.28966 11.2515 4.29611 10.5536C4.29611 10.3116 4.21543 10.2132 3.96937 10.2156C3.29894 10.2237 2.6285 10.2212 1.95888 10.2156C1.73459 10.2156 1.61035 10.2793 1.61196 10.5383C1.62084 11.6791 1.60389 12.8207 1.62245 13.9615C1.61936 14.234 1.72175 14.4971 1.90819 14.6959C2.09463 14.8947 2.3507 15.0137 2.62286 15.028C3.06255 15.0676 3.51031 15.0417 3.95 15.0579C4.2114 15.0676 4.30176 14.9611 4.29692 14.7021C4.28885 14.0163 4.29611 13.3322 4.29611 12.6472ZM16.7205 15.0401C17.182 15.0401 17.6217 15.0329 18.0605 15.0401C18.8576 15.0563 19.3627 14.5883 19.3691 13.7953C19.3772 12.7344 19.3619 11.6718 19.3764 10.6109C19.3812 10.3092 19.2764 10.2075 18.9811 10.2124C18.3639 10.2269 17.7459 10.2309 17.1255 10.2124C16.7979 10.2019 16.6785 10.3035 16.6834 10.6456C16.7003 11.976 16.6898 13.308 16.6914 14.6367C16.6906 14.7529 16.7052 14.8739 16.7205 15.0401Z" fill="#737373"/>
</svg>
