<svg width="29" height="29" viewBox="0 0 29 29" fill="none" xmlns="http://www.w3.org/2000/svg">
<path d="M28.9998 14.5304C28.9735 22.5395 22.437 29.0361 14.4415 28.9999C6.44597 28.9636 -0.0262004 22.4624 7.97502e-05 14.4687C0.0263599 6.45964 6.56377 -0.0369961 14.5593 0.000158577C22.5548 0.0373133 29.0261 6.53667 28.9998 14.5304ZM22.0845 5.11573C17.3658 1.14561 9.9086 1.67665 5.72371 6.19684C1.06216 11.2308 1.81341 18.302 5.13468 22.0664L22.0845 5.11573ZM6.93894 23.8943C11.2752 27.5354 18.4016 27.7121 23.0695 22.9962C27.8724 18.1407 27.3659 10.9925 23.8851 6.94537L6.93894 23.8943Z" fill="#737373"/>
</svg>
