<svg width="28" height="26" viewBox="0 0 28 26" fill="none" xmlns="http://www.w3.org/2000/svg">
<path d="M9.28282 25.9184C4.66801 25.9184 1.00179 22.9392 0.17511 18.7995C-0.187123 17.0007 0.0156184 15.1338 0.755566 13.4546C1.49551 11.7755 2.73648 10.3661 4.30851 9.41955C4.60394 9.24158 4.69827 9.06361 4.70005 8.72813C4.72318 4.59029 7.78964 0.929409 11.8554 0.16502C16.8689 -0.77734 21.4766 2.40481 22.3887 7.4512C22.4615 7.89016 22.494 8.33486 22.4857 8.77975C22.4857 9.08052 22.5746 9.2407 22.8416 9.40265C25.7461 11.1717 27.2571 13.7888 27.2713 17.1676C27.2891 21.3401 24.3348 24.9004 20.2308 25.7903C18.0132 26.2708 15.9051 25.9193 13.9341 24.7999C13.6796 24.6548 13.5079 24.6575 13.2525 24.7999C11.9061 25.5411 10.4672 25.9505 9.28282 25.9184ZM20.7139 8.89455C20.7139 4.98717 17.53 1.78368 13.6298 1.77122C12.6905 1.76794 11.7598 1.95023 10.8911 2.30763C10.0224 2.66504 9.23293 3.1905 8.5679 3.85387C7.90288 4.51724 7.37544 5.30545 7.01588 6.17322C6.65631 7.04099 6.4717 7.97124 6.47264 8.91056C6.47264 12.8099 9.67614 16.0107 13.5782 16.0125C15.4677 16.0128 17.2801 15.2635 18.6179 13.929C19.9557 12.5946 20.7095 10.7841 20.7139 8.89455ZM4.98213 11.1726C2.52523 12.8366 1.20201 16.3934 2.58663 19.6716C3.97125 22.9499 7.53691 24.6797 11.0029 23.765C13.8905 23.0032 16.456 19.8496 16.1418 17.3989C13.7544 18.0414 11.4461 17.8439 9.27392 16.6372C7.10177 15.4306 5.69936 13.5885 4.98213 11.1726ZM15.3107 23.4446C18.5222 24.9191 22.9306 23.5808 24.6026 19.6921C26.151 16.0917 24.3116 12.405 22.2089 11.2153C22.1902 11.2375 22.1626 11.2571 22.1555 11.2829C21.5326 13.4696 20.2625 15.1737 18.3451 16.3952C18.1227 16.5375 18.0319 16.6844 18.0328 16.9575C18.0328 18.4507 17.6955 19.8727 16.9347 21.1559C16.4667 21.9506 15.8687 22.6713 15.3143 23.4446H15.3107Z" fill="#303030"/>
</svg>
