<svg width="22" height="21" viewBox="0 0 22 21" fill="none" xmlns="http://www.w3.org/2000/svg">
<path d="M10.3542 0.268542C10.5444 0.268542 10.7353 0.268542 10.9263 0.268542C11.3875 0.279269 11.7022 0.565318 11.7079 0.973652C11.7143 1.39486 11.3911 1.6759 10.9098 1.70164C10.1868 1.73955 9.45383 1.73526 8.743 1.85468C5.25965 2.44036 2.44994 5.26437 1.84352 8.74486C1.0812 13.1157 3.6585 17.2784 7.88987 18.5177C8.84813 18.7987 9.82713 18.8753 10.8219 18.8681C11.0326 18.8642 11.2405 18.9176 11.4233 19.0226C11.6864 19.1885 11.7715 19.4702 11.6771 19.777C11.6402 19.9235 11.5553 20.0534 11.4359 20.1459C11.3165 20.2385 11.1696 20.2884 11.0185 20.2876C8.14016 20.4063 5.59361 19.5725 3.4647 17.5981C1.72553 15.9847 0.675732 13.986 0.360364 11.6418C-0.291825 6.779 2.58439 2.35669 7.02886 0.81275C8.09853 0.444527 9.22293 0.260511 10.3542 0.268542Z" fill="#737373" stroke="#737373" stroke-width="0.524837"/>
<path d="M19.1394 9.56515C18.3649 8.86862 17.6748 8.2479 16.9855 7.62646C16.7652 7.42694 16.6236 7.16091 16.753 6.8956C16.856 6.68536 17.0691 6.4601 17.2815 6.39502C17.4632 6.3371 17.7692 6.43006 17.9251 6.56593C19.1187 7.60715 20.2929 8.66982 21.4635 9.73749C21.8211 10.0643 21.8211 10.5034 21.4635 10.8316C20.2931 11.8986 19.116 12.9582 17.9323 14.0103C17.599 14.3064 17.1814 14.2799 16.9089 13.9832C16.6365 13.6864 16.6544 13.2487 16.9933 12.9369C17.6777 12.3105 18.3706 11.6941 19.1423 10.999H5.20314C5.07241 11.0052 4.9414 11.0014 4.81125 10.9875C4.64515 10.9585 4.49464 10.8717 4.38632 10.7425C4.278 10.6132 4.21882 10.4499 4.21925 10.2813C4.21968 10.1126 4.27968 9.94959 4.38866 9.82091C4.49764 9.69223 4.64858 9.60621 4.81483 9.57802C4.94529 9.56537 5.07649 9.56202 5.20743 9.56801H19.1394V9.56515Z" fill="#737373" stroke="#737373" stroke-width="0.524837"/>
</svg>
