<svg width="22" height="21" viewBox="0 0 22 21" fill="none" xmlns="http://www.w3.org/2000/svg">
<path d="M10.5089 20.9896C8.22478 20.9896 5.94003 20.9555 3.65658 20.9994C3.17353 21.0081 2.69367 20.9193 2.24574 20.7383C1.79781 20.5572 1.39102 20.2877 1.04969 19.9458C0.708373 19.6038 0.439545 19.1965 0.259303 18.7483C0.0790602 18.3 -0.00889134 17.82 0.00070926 17.337C0.0380676 14.891 0.0164388 12.443 0.0066077 9.9964C0.00201984 8.86844 0.409683 7.94693 1.24861 7.19059C3.5373 5.12867 5.80698 3.04709 8.09763 0.987141C9.55526 -0.323677 11.4461 -0.330231 12.8979 0.974688C15.2447 3.08511 17.5823 5.20601 19.9107 7.3374C20.2523 7.63882 20.5254 8.00994 20.7114 8.42576C20.8975 8.84158 20.9924 9.29245 20.9895 9.748C21.0066 12.3152 21.0256 14.8825 20.9895 17.4491C20.96 19.4094 19.4867 21.0223 17.3959 20.9961C15.0968 20.9673 12.8028 20.9896 10.5089 20.9896ZM10.4604 18.967C12.7556 18.967 15.0509 18.967 17.3461 18.967C18.1981 18.967 18.7736 18.4132 18.7769 17.5618C18.7861 15.0273 18.7802 12.4922 18.7802 9.95904C18.7809 9.72863 18.732 9.50077 18.6368 9.29096C18.5416 9.08116 18.4022 8.89435 18.2283 8.74325C15.9615 6.67347 13.6887 4.60959 11.4101 2.5516C11.2667 2.41864 11.0983 2.31569 10.9146 2.2488C10.2801 2.0358 9.77024 2.29206 9.30752 2.71218C7.10928 4.71052 4.91628 6.71673 2.69968 8.6941C2.2717 9.07555 2.10982 9.49304 2.10982 10.039C2.11899 12.5079 2.13341 14.9769 2.10261 17.4451C2.09895 17.648 2.13626 17.8494 2.21232 18.0375C2.28838 18.2256 2.40162 18.3963 2.54524 18.5396C2.68887 18.6829 2.85994 18.7957 3.0482 18.8712C3.23646 18.9468 3.43803 18.9836 3.64085 18.9794C5.91315 18.9434 8.18677 18.967 10.4604 18.967Z" fill="#35339A"/>
</svg>
