<svg width="393" height="50" viewBox="0 0 393 50" fill="none" xmlns="http://www.w3.org/2000/svg">
<g filter="url(#filter0_d_388_433)">
<rect width="393" height="50" fill="#F8F8F8"/>
</g>
<path d="M196.887 0V50" stroke="#DADADA"/>
<path d="M97.3911 26.4239V27.9074C97.3911 28.5384 97.3846 29.1701 97.3911 29.8011C97.3954 30.1234 97.3789 30.43 97.0523 30.6029C96.7258 30.7758 96.4442 30.6486 96.1641 30.4478C93.5315 28.5622 90.8963 26.6804 88.2585 24.8025C87.6389 24.3601 87.0165 23.9199 86.4005 23.474C85.8731 23.0931 85.8645 22.6022 86.3869 22.2285C89.6698 19.8817 92.9534 17.5366 96.2377 15.1932C96.4892 15.0139 96.7479 14.926 97.0359 15.0775C97.3239 15.2289 97.3932 15.4862 97.3932 15.7978C97.3839 16.9633 97.3896 18.1288 97.3896 19.2879C98.1435 19.4551 98.8824 19.5737 99.5956 19.7845C103.87 21.0394 106.622 23.8542 107.992 28.0568C108.644 30.0577 108.875 32.1171 108.887 34.2102C108.887 34.6697 108.66 34.957 108.278 34.9963C107.913 35.0349 107.64 34.7712 107.526 34.336C106.467 30.3128 103.965 27.7259 99.8922 26.7362C99.2033 26.5683 98.483 26.5254 97.777 26.4296C97.6485 26.4201 97.5197 26.4182 97.3911 26.4239ZM107.067 29.9755L107.148 29.9412C106.948 29.2852 106.774 28.6206 106.546 27.9746C105.037 23.6905 101.294 20.8922 96.7594 20.6442C96.3306 20.6213 96.0769 20.3762 96.0726 19.9453C96.0641 19.0764 96.0726 18.2067 96.0676 17.3377C96.0676 17.2377 96.054 17.1384 96.0419 16.9847L87.8325 22.8445L96.0691 28.7242C96.0691 27.693 96.0691 26.7555 96.0691 25.8179C96.0691 25.2898 96.307 25.0319 96.8265 25.0612C97.7041 25.1126 98.588 25.1491 99.4534 25.2884C102.541 25.785 105.054 27.2578 106.912 29.7997C106.959 29.8626 107.015 29.9176 107.067 29.9755Z" fill="#737373"/>
<path d="M296.382 26.4239V27.9074C296.382 28.5384 296.389 29.1701 296.382 29.8011C296.378 30.1234 296.395 30.43 296.721 30.6029C297.048 30.7758 297.329 30.6486 297.609 30.4478C300.242 28.5622 302.877 26.6804 305.515 24.8025C306.135 24.3601 306.757 23.9199 307.373 23.474C307.9 23.0931 307.909 22.6022 307.387 22.2285C304.104 19.8817 300.82 17.5366 297.536 15.1932C297.284 15.0139 297.026 14.926 296.738 15.0775C296.45 15.2289 296.38 15.4862 296.38 15.7978C296.39 16.9633 296.384 18.1288 296.384 19.2879C295.63 19.4551 294.891 19.5737 294.178 19.7845C289.904 21.0394 287.151 23.8542 285.781 28.0568C285.13 30.0577 284.898 32.1171 284.887 34.2102C284.887 34.6697 285.114 34.957 285.495 34.9963C285.861 35.0349 286.134 34.7712 286.248 34.336C287.307 30.3128 289.808 27.7259 293.881 26.7362C294.57 26.5683 295.29 26.5254 295.996 26.4296C296.125 26.4201 296.254 26.4182 296.382 26.4239ZM286.707 29.9755L286.626 29.9412C286.825 29.2852 287 28.6206 287.228 27.9746C288.736 23.6905 292.479 20.8922 297.014 20.6442C297.443 20.6213 297.697 20.3762 297.701 19.9453C297.709 19.0764 297.701 18.2067 297.706 17.3377C297.706 17.2377 297.719 17.1384 297.732 16.9847L305.941 22.8445L297.704 28.7242C297.704 27.693 297.704 26.7555 297.704 25.8179C297.704 25.2898 297.466 25.0319 296.947 25.0612C296.069 25.1126 295.185 25.1491 294.32 25.2884C291.232 25.785 288.72 27.2578 286.861 29.7997C286.815 29.8626 286.758 29.9176 286.707 29.9755Z" fill="#737373"/>
<defs>
<filter id="filter0_d_388_433" x="-5" y="-5" width="403" height="60" filterUnits="userSpaceOnUse" color-interpolation-filters="sRGB">
<feFlood flood-opacity="0" result="BackgroundImageFix"/>
<feColorMatrix in="SourceAlpha" type="matrix" values="0 0 0 0 0 0 0 0 0 0 0 0 0 0 0 0 0 0 127 0" result="hardAlpha"/>
<feOffset/>
<feGaussianBlur stdDeviation="2.5"/>
<feComposite in2="hardAlpha" operator="out"/>
<feColorMatrix type="matrix" values="0 0 0 0 0 0 0 0 0 0 0 0 0 0 0 0 0 0 0.15 0"/>
<feBlend mode="normal" in2="BackgroundImageFix" result="effect1_dropShadow_388_433"/>
<feBlend mode="normal" in="SourceGraphic" in2="effect1_dropShadow_388_433" result="shape"/>
</filter>
</defs>
</svg>
