<svg width="23" height="22" viewBox="0 0 23 22" fill="none" xmlns="http://www.w3.org/2000/svg">
<path d="M11.0793 6.3277C14.1743 6.3277 17.2685 6.3277 20.3618 6.3277C21.3952 6.3277 22.066 6.94796 22.042 7.86762C22.018 8.78729 21.3712 9.34439 20.3618 9.34439C14.1297 9.34439 7.89753 9.34439 1.6654 9.34439C0.620675 9.34439 -0.0185391 8.74939 0.000409926 7.80446C0.0180957 6.88606 0.643414 6.32896 1.6654 6.3277H11.0793Z" fill="#35339A"/>
<path d="M10.964 21.9783H1.80786C0.638068 21.9783 -0.00998972 21.4301 0.000116448 20.4536C0.00895934 19.4985 0.648174 18.9604 1.77627 18.9604C7.9423 18.9604 14.1108 18.9768 20.2769 18.944C21.3797 18.944 22.0341 19.5756 22.0265 20.4839C22.0189 21.3379 21.4214 22.0125 20.2466 21.9998C17.1528 21.9468 14.0578 21.9783 10.964 21.9783Z" fill="#35339A"/>
<path d="M6.25463 0.0100651C7.85266 0.0100651 9.4507 -0.0139374 11.0475 0.0176444C12.168 0.0403833 12.8161 1.06616 12.4143 2.11088C12.1857 2.69578 11.736 3.0217 11.1031 3.02297C7.8653 3.03181 4.62754 3.04192 1.38978 3.02297C0.51812 3.02297 -0.0111899 2.38249 0.000179539 1.48304C0.0128122 0.621489 0.544649 0.0252268 1.38978 0.0125941C3.00803 -0.0114081 4.62753 0.00627541 6.24705 0.00627541L6.25463 0.0100651Z" fill="#35339A"/>
<path d="M6.23303 15.6671C4.69689 15.6671 3.16202 15.6671 1.62714 15.6671C0.579893 15.6671 0.00636809 15.1264 5.17362e-05 14.1688C-0.00626462 13.2113 0.565999 12.6441 1.59683 12.6415C4.68847 12.6348 7.7797 12.6348 10.8705 12.6415C11.9152 12.6415 12.4711 13.1557 12.4862 14.0741C12.5026 15.0923 11.991 15.6481 10.964 15.6607C9.38616 15.6797 7.80959 15.6658 6.23303 15.6671Z" fill="#35339A"/>
</svg>
