<svg width="23" height="20" viewBox="0 0 23 20" fill="none" xmlns="http://www.w3.org/2000/svg">
<path d="M11.4958 11.4239V12.9074C11.4958 13.5384 11.5022 14.1701 11.4958 14.8011C11.4915 15.1234 11.5079 15.43 11.8345 15.6029C12.1611 15.7758 12.4426 15.6486 12.7227 15.4478C15.3553 13.5622 17.9906 11.6804 20.6284 9.80247C21.2479 9.36013 21.8704 8.91994 22.4864 8.47403C23.0137 8.09314 23.0223 7.60221 22.4999 7.22848C19.217 4.88172 15.9335 2.53664 12.6491 0.193218C12.3976 0.013853 12.1389 -0.0740427 11.8509 0.0774529C11.5629 0.228949 11.4936 0.486204 11.4936 0.797771C11.5029 1.96329 11.4972 3.1288 11.4972 4.28789C10.7433 4.4551 10.0044 4.57373 9.29123 4.78454C5.01719 6.03938 2.26454 8.8542 0.894651 13.0568C0.242935 15.0577 0.011404 17.1171 -2.86102e-05 19.2102C-2.86102e-05 19.6697 0.227213 19.957 0.60881 19.9963C0.973972 20.0349 1.24695 19.7712 1.36129 19.336C2.42033 15.3128 4.92143 12.7259 8.99467 11.7362C9.68354 11.5683 10.4039 11.5254 11.1099 11.4296C11.2383 11.4201 11.3671 11.4182 11.4958 11.4239ZM1.82006 14.9755L1.73931 14.9412C1.93869 14.2852 2.11305 13.6206 2.34101 12.9746C3.84953 8.69055 7.59262 5.89217 12.1275 5.6442C12.5562 5.62134 12.8099 5.37623 12.8142 4.94532C12.8228 4.07637 12.8142 3.2067 12.8192 2.33774C12.8192 2.2377 12.8328 2.13837 12.8449 1.98473L21.0543 7.84446L12.8178 13.7242C12.8178 12.693 12.8178 11.7555 12.8178 10.8179C12.8178 10.2898 12.5798 10.0319 12.0603 10.0612C11.1828 10.1126 10.2988 10.1491 9.43343 10.2884C6.34564 10.785 3.8331 12.2578 1.97442 14.7997C1.92797 14.8626 1.87151 14.9176 1.82006 14.9755Z" fill="#737373"/>
</svg>
