<svg width="22" height="22" viewBox="0 0 22 22" fill="none" xmlns="http://www.w3.org/2000/svg">
<path d="M10.9979 2.15131e-08C12.4431 -9.03608e-05 13.8741 0.28461 15.2091 0.837836C16.5442 1.39106 17.7573 2.20197 18.779 3.22425C19.8007 4.24652 20.611 5.46012 21.1637 6.79573C21.7164 8.13133 22.0005 9.56276 22 11.0082C22 17.0818 17.0603 22.0048 10.9828 22C4.90532 21.9952 -0.0109754 17.0515 1.84023e-05 10.9739C0.00688953 4.91684 4.93555 2.15131e-08 10.9979 2.15131e-08ZM9.37292 11.7244C8.82323 11.1615 8.3024 10.611 7.75958 10.0866C7.08827 9.4378 6.07822 9.45292 5.44814 10.0962C5.14772 10.4021 4.98089 10.8148 4.98423 11.2436C4.98758 11.6724 5.16084 12.0823 5.466 12.3835C6.38215 13.3145 7.30517 14.2373 8.23506 15.1519C8.89263 15.7966 9.8649 15.8048 10.5183 15.1574C12.5339 13.1583 14.5389 11.1484 16.5333 9.12783C16.758 8.89965 16.9147 8.54708 16.9765 8.22818C17.1139 7.52165 16.7401 6.85911 16.1204 6.54777C15.8179 6.39197 15.4738 6.33618 15.1375 6.38843C14.8013 6.44067 14.4904 6.59824 14.2494 6.83849C13.6722 7.3945 13.1115 7.96701 12.546 8.5347C11.4975 9.58762 10.4496 10.6419 9.37292 11.7244Z" fill="#35339A"/>
</svg>
