<svg width="26" height="26" viewBox="0 0 26 26" fill="none" xmlns="http://www.w3.org/2000/svg">
<g opacity="0.5">
<path fill-rule="evenodd" clip-rule="evenodd" d="M2.16673 13C3.19048 8.05567 7.65165 4.33334 13.0001 4.33334C18.3485 4.33334 22.8096 8.05567 23.8334 13C22.8096 17.9443 18.3485 21.6667 13.0001 21.6667C7.65165 21.6667 3.19048 17.9443 2.16673 13ZM13.0001 18.4167C14.4367 18.4167 15.8144 17.846 16.8302 16.8302C17.846 15.8143 18.4167 14.4366 18.4167 13C18.4167 11.5634 17.846 10.1857 16.8302 9.16984C15.8144 8.15402 14.4367 7.58334 13.0001 7.58334C11.5635 7.58334 10.1857 8.15402 9.1699 9.16984C8.15408 10.1857 7.5834 11.5634 7.5834 13C7.5834 14.4366 8.15408 15.8143 9.1699 16.8302C10.1857 17.846 11.5635 18.4167 13.0001 18.4167ZM13.0001 16.25C13.862 16.25 14.6887 15.9076 15.2982 15.2981C15.9077 14.6886 16.2501 13.862 16.2501 13C16.2501 12.1381 15.9077 11.3114 15.2982 10.7019C14.6887 10.0924 13.862 9.75 13.0001 9.75C12.1381 9.75 11.3115 10.0924 10.702 10.7019C10.0925 11.3114 9.75006 12.1381 9.75006 13C9.75006 13.862 10.0925 14.6886 10.702 15.2981C11.3115 15.9076 12.1381 16.25 13.0001 16.25Z" fill="#C8C7CC"/>
</g>
</svg>
