<svg width="18" height="18" viewBox="0 0 18 18" fill="none" xmlns="http://www.w3.org/2000/svg">
<path d="M7.1924 9.01221V16.0091C7.1924 16.6249 7.00498 16.8093 6.37966 16.8093C4.50748 16.8093 2.6355 16.8093 0.763727 16.8093C0.0867405 16.8093 -0.159546 16.4422 0.10296 15.8181C2.05843 11.1163 4.01531 6.41439 5.97358 1.71252C5.99701 1.65726 6.01804 1.60079 6.04507 1.54733C6.18022 1.28062 6.44393 1.14186 6.70584 1.19712C6.84038 1.22261 6.96188 1.29407 7.04954 1.39927C7.13721 1.50447 7.18558 1.63686 7.18639 1.77379C7.19901 2.1234 7.1912 2.47421 7.1912 2.82442L7.1924 9.01221Z" fill="#737373"/>
<path d="M14.3932 16.8087C13.4417 16.8087 12.4904 16.8087 11.5393 16.8087C11.0053 16.8087 10.7975 16.5984 10.7975 16.059C10.7975 11.3537 10.8041 6.64906 10.7878 1.94259C10.7878 1.34189 11.275 1.02953 11.6667 1.2638C11.8144 1.35271 11.9358 1.53232 12.0049 1.69751C13.1262 4.36701 14.2429 7.03912 15.355 9.71383C16.2039 11.7518 17.0521 13.7902 17.8995 15.8289C18.1512 16.4344 17.8995 16.8087 17.2484 16.8093C16.2964 16.8105 15.3447 16.8103 14.3932 16.8087ZM12.0127 15.5887H16.4975L12.0565 4.93167L12.0127 4.94428V15.5887Z" fill="#737373"/>
<path d="M9.59626 9.02783V17.1973C9.60081 17.2975 9.5978 17.3979 9.58725 17.4977C9.56395 17.638 9.4916 17.7655 9.38308 17.8575C9.27456 17.9495 9.13692 18 8.99466 18C8.85239 18 8.71475 17.9495 8.60623 17.8575C8.49771 17.7655 8.42536 17.638 8.40207 17.4977C8.392 17.3979 8.38919 17.2975 8.39366 17.1973V0.800061C8.39014 0.709938 8.39175 0.619688 8.39846 0.529747C8.41583 0.383747 8.48614 0.249187 8.59607 0.151555C8.70601 0.0539228 8.84793 0 8.99496 0C9.14199 0 9.28391 0.0539228 9.39384 0.151555C9.50377 0.249187 9.57408 0.383747 9.59145 0.529747C9.59879 0.629689 9.6004 0.72997 9.59626 0.830096V9.02783Z" fill="#737373"/>
</svg>
