<svg width="26" height="26" viewBox="0 0 26 26" fill="none" xmlns="http://www.w3.org/2000/svg">
<path d="M0.00510732 22.8757C0.0400079 21.9577 0.518882 21.0966 1.4823 20.5341C1.72173 20.3945 1.81751 20.2557 1.81751 19.9733C1.80777 15.3199 1.80777 10.6646 1.81751 6.00736C1.81751 5.74033 1.73634 5.60722 1.50178 5.47655C0.417426 4.86538 -0.164521 3.65929 0.0408247 2.50757C0.276201 1.18216 1.17712 0.282046 2.49523 0.044235C3.65182 -0.163545 4.85873 0.410293 5.46908 1.49302C5.6095 1.74139 5.75965 1.81768 6.03723 1.81768C10.6782 1.80956 15.3189 1.80956 19.9593 1.81768C20.2337 1.81768 20.3862 1.74301 20.5275 1.49302C21.1394 0.40867 22.3447 -0.165171 23.4997 0.0417977C24.8243 0.28042 25.7155 1.17323 25.9549 2.50351C26.1619 3.65199 25.5824 4.86375 24.494 5.47248C24.2375 5.61614 24.179 5.77848 24.179 6.04469C24.1855 10.6732 24.1855 15.3017 24.179 19.9303C24.179 20.22 24.2505 20.3832 24.5134 20.5325C25.5954 21.1477 26.1635 22.3546 25.9517 23.5112C25.7082 24.8358 24.8154 25.723 23.4835 25.96C22.3407 26.1637 21.1297 25.5777 20.5193 24.4876C20.3854 24.249 20.2418 24.1816 19.9829 24.1816C15.3294 24.1892 10.676 24.1892 6.02262 24.1816C5.73367 24.1816 5.60381 24.2912 5.46827 24.5258C5.14733 25.0884 4.64855 25.5284 4.05031 25.7767C3.45206 26.025 2.78828 26.0675 2.16327 25.8975C0.905225 25.5558 0.00916553 24.3764 0.00510732 22.8757ZM12.9914 22.6622C15.2372 22.6622 17.483 22.6574 19.728 22.6671C20.021 22.6671 20.1525 22.62 20.245 22.2848C20.5429 21.2175 21.2571 20.5147 22.3407 20.2395C22.5988 20.1738 22.6532 20.0699 22.6532 19.8337C22.6472 15.2733 22.6472 10.7127 22.6532 6.15184C22.6532 5.93026 22.6045 5.82312 22.361 5.76793C21.4617 5.5634 20.6809 5.04638 20.4504 4.18442C20.2069 3.28593 19.6972 3.2762 19.0178 3.34032C18.9367 3.34438 18.8554 3.34438 18.7743 3.34032C14.5933 3.34032 10.4128 3.33896 6.23283 3.33626C5.9585 3.33626 5.82701 3.37684 5.74017 3.69743C5.45041 4.7688 4.73779 5.47492 3.65993 5.75737C3.38154 5.83042 3.32797 5.94 3.32797 6.19161C3.33338 10.7368 3.33338 15.2836 3.32797 19.8321C3.32797 20.0715 3.38235 20.1754 3.64127 20.2379C4.72481 20.513 5.43824 21.2167 5.7353 22.284C5.82864 22.6192 5.96093 22.6663 6.25393 22.6655C8.5038 22.6574 10.7496 22.6622 12.9954 22.6622H12.9914ZM23.0403 21.681C22.8578 21.6778 22.6766 21.7117 22.5076 21.7807C22.3386 21.8496 22.1854 21.9522 22.0572 22.0821C21.9291 22.212 21.8286 22.3666 21.7619 22.5365C21.6953 22.7064 21.6638 22.8881 21.6694 23.0705C21.6694 23.874 22.2733 24.4608 23.089 24.4503C23.8674 24.4414 24.4453 23.8391 24.4388 23.0421C24.4371 22.2621 23.8365 21.6761 23.0444 21.681H23.0403ZM4.31249 2.96614C4.32386 2.17074 3.74434 1.56039 2.96922 1.54983C2.16651 1.53847 1.55697 2.10742 1.54317 2.88092C1.52856 3.70311 2.10402 4.31184 2.9043 4.31996C3.70458 4.32807 4.30518 3.74938 4.31655 2.96614H4.31249ZM23.0468 1.54983C22.6852 1.55793 22.3412 1.70707 22.0881 1.96542C21.835 2.22378 21.693 2.57086 21.6923 2.93252C21.6917 3.29418 21.8325 3.64176 22.0847 3.901C22.3368 4.16024 22.6804 4.31059 23.0419 4.31996C23.8487 4.32483 24.4436 3.72664 24.4388 2.91581C24.4388 2.13339 23.8438 1.54821 23.0509 1.54983H23.0468ZM2.91809 21.6785C2.73574 21.6743 2.55442 21.7071 2.38511 21.775C2.2158 21.8428 2.06201 21.9443 1.93303 22.0733C1.80406 22.2022 1.70258 22.356 1.63473 22.5254C1.56688 22.6947 1.53408 22.876 1.5383 23.0583C1.5383 23.8643 2.13648 24.4527 2.94893 24.4454C3.72973 24.4381 4.3133 23.8359 4.30762 23.0437C4.30194 22.2515 3.71675 21.6785 2.92378 21.681L2.91809 21.6785Z" fill="#303030"/>
<path d="M19.1289 7.25323V9.97061H17.6306V8.76938H13.768V17.3728H15.0553V18.9003H10.9313V17.4134H12.217V8.76694H8.38357V9.97871H6.86743V7.25323H19.1289Z" fill="#303030"/>
</svg>
