<svg width="23" height="20" viewBox="0 0 23 20" fill="none" xmlns="http://www.w3.org/2000/svg">
<path d="M11.4959 11.4239V12.9074C11.4959 13.5384 11.5023 14.1701 11.4959 14.8011C11.4916 15.1234 11.508 15.43 11.8346 15.6029C12.1612 15.7758 12.4427 15.6486 12.7229 15.4478C15.3555 13.5622 17.9907 11.6804 20.6285 9.80247C21.2481 9.36013 21.8705 8.91994 22.4865 8.47403C23.0139 8.09314 23.0224 7.60221 22.5001 7.22848C19.2172 4.88172 15.9336 2.53664 12.6493 0.193218C12.3977 0.013853 12.139 -0.0740427 11.8511 0.0774529C11.5631 0.228949 11.4938 0.486204 11.4938 0.797771C11.503 1.96329 11.4973 3.1288 11.4973 4.28789C10.7434 4.4551 10.0045 4.57373 9.29135 4.78454C5.01731 6.03938 2.26467 8.8542 0.894773 13.0568C0.243057 15.0577 0.0115261 17.1171 9.34601e-05 19.2102C9.34601e-05 19.6697 0.227335 19.957 0.608932 19.9963C0.974094 20.0349 1.24707 19.7712 1.36141 19.336C2.42045 15.3128 4.92156 12.7259 8.99479 11.7362C9.68366 11.5683 10.404 11.5254 11.11 11.4296C11.2384 11.4201 11.3673 11.4182 11.4959 11.4239ZM1.82018 14.9755L1.73943 14.9412C1.93881 14.2852 2.11317 13.6206 2.34113 12.9746C3.84966 8.69055 7.59274 5.89217 12.1276 5.6442C12.5564 5.62134 12.81 5.37623 12.8143 4.94532C12.8229 4.07637 12.8143 3.2067 12.8193 2.33774C12.8193 2.2377 12.8329 2.13837 12.8451 1.98473L21.0544 7.84446L12.8179 13.7242C12.8179 12.693 12.8179 11.7555 12.8179 10.8179C12.8179 10.2898 12.5799 10.0319 12.0604 10.0612C11.1829 10.1126 10.2989 10.1491 9.43355 10.2884C6.34576 10.785 3.83322 12.2578 1.97454 14.7997C1.92809 14.8626 1.87164 14.9176 1.82018 14.9755Z" fill="#737373"/>
</svg>
