<svg width="21" height="21" viewBox="0 0 21 21" fill="none" xmlns="http://www.w3.org/2000/svg">
<path d="M6.70711e-05 10.5752C-0.00321233 8.25469 0.113534 6.48972 0.401465 4.74114C0.721535 2.79383 2.50618 0.898342 4.44234 0.477923C6.04793 0.128995 7.68632 0.0417643 9.32471 0.0076586C11.3241 -0.0339397 13.3233 0.0939764 15.3011 0.390036C17.4432 0.709449 19.4331 2.81286 19.742 5.03432C20.0352 7.15281 20.1159 9.2759 20.0621 11.4082C20.049 11.9329 19.9873 12.4576 19.9736 12.9777C19.9658 13.146 20.0088 13.3128 20.0969 13.4565C22.1019 16.3128 20.5685 20.212 17.1389 20.9046C15.8271 21.167 14.6045 20.8817 13.4909 20.1268C13.3323 20.024 13.1457 19.9734 12.957 19.9818C11.0352 20.1176 9.11352 20.1379 7.19441 19.9707C6.29323 19.892 5.38681 19.8001 4.50531 19.6191C2.43994 19.1948 0.688741 17.2389 0.373263 15.1519C0.147604 13.6363 0.0229304 12.1074 6.70711e-05 10.5752ZM18.4696 12.007C18.4808 11.9414 18.49 11.906 18.4913 11.8758C18.5771 9.71464 18.4867 7.55007 18.2211 5.40358C17.9941 3.57368 16.464 2.13664 15.0204 1.94054C13.7893 1.77394 12.5477 1.64473 11.3074 1.59489C9.29892 1.50816 7.28669 1.60916 5.29695 1.89659C3.67496 2.13402 2.17628 3.45759 1.93819 5.08023C1.75778 6.31098 1.64175 7.55031 1.59058 8.79317C1.50746 10.8126 1.6091 12.8355 1.89425 14.8364C2.11987 16.4263 3.551 17.9932 5.14872 18.1631C6.74645 18.3329 8.36647 18.4254 9.97731 18.5277C10.645 18.5691 11.3173 18.5349 12.0341 18.5349C11.1225 16.4296 11.2858 14.5341 12.8448 12.937C14.4458 11.298 16.3761 11.1104 18.4696 12.007ZM19.4167 16.2367C19.417 15.6067 19.2302 14.9907 18.8802 14.4669C18.5301 13.943 18.0324 13.5348 17.4501 13.2941C16.8679 13.0533 16.2273 12.9907 15.6095 13.1143C14.9916 13.2379 14.4244 13.542 13.9796 13.9882C13.5347 14.4344 13.2323 15.0026 13.1107 15.6208C12.989 16.2391 13.0536 16.8795 13.2961 17.461C13.5387 18.0424 13.9484 18.5389 14.4734 18.8873C14.9983 19.2358 15.6148 19.4206 16.2449 19.4184C16.6629 19.4206 17.0771 19.3397 17.4636 19.1805C17.85 19.0212 18.201 18.7868 18.4961 18.4908C18.7912 18.1948 19.0245 17.8431 19.1826 17.4561C19.3406 17.0692 19.4202 16.6547 19.4167 16.2367Z" fill="#737373"/>
<path d="M10.035 5.24225C11.6839 5.24225 13.3328 5.24225 14.9817 5.24225C15.5359 5.24225 15.8553 5.57937 15.8153 6.09949C15.8106 6.24839 15.7577 6.39176 15.6647 6.5081C15.5716 6.62445 15.4434 6.70752 15.2991 6.74487C15.1314 6.79115 14.9576 6.81193 14.7836 6.80652C11.617 6.81002 8.45066 6.81002 5.28451 6.80652C5.20778 6.80652 5.13104 6.80652 5.05496 6.80652C4.56173 6.77176 4.23248 6.44448 4.24101 5.99914C4.24953 5.55379 4.58403 5.24225 5.08906 5.24094C6.73794 5.23963 8.38661 5.24006 10.035 5.24225Z" fill="#737373"/>
<path d="M8.02806 10.1003C8.97778 10.1003 9.92771 10.1003 10.8779 10.1003C11.4098 10.1003 11.743 10.3975 11.7476 10.8638C11.7521 11.3301 11.4157 11.6508 10.8949 11.6508C8.96269 11.6561 7.03003 11.6561 5.09694 11.6508C4.57814 11.6508 4.23642 11.3229 4.24101 10.8638C4.24561 10.4047 4.5847 10.1003 5.11202 10.099C6.08447 10.0986 7.05649 10.099 8.02806 10.1003Z" fill="#737373"/>
<path d="M17.0025 15.2031C17.0025 15.432 17.0116 15.6622 17.0025 15.8898C16.9976 16.0891 16.9153 16.2786 16.773 16.4182C16.6307 16.5578 16.4396 16.6364 16.2402 16.6373C16.0409 16.6383 15.849 16.5615 15.7054 16.4233C15.5618 16.285 15.4777 16.0962 15.471 15.897C15.4592 15.4287 15.4585 14.9598 15.471 14.4915C15.4828 14.2973 15.568 14.1149 15.7093 13.9812C15.8506 13.8476 16.0375 13.7727 16.232 13.7718C16.4266 13.7708 16.6141 13.844 16.7567 13.9763C16.8993 14.1086 16.9862 14.2902 16.9998 14.4843C17.013 14.723 16.9998 14.9637 16.9998 15.2057L17.0025 15.2031Z" fill="#737373"/>
<path d="M15.4579 17.8926C15.4618 17.2364 15.5891 17.1143 16.2782 17.1183C16.8944 17.1183 17.0387 17.2784 17.0282 17.9366C17.0184 18.5679 16.8766 18.7011 16.2178 18.6978C15.5819 18.6919 15.4507 18.5528 15.4579 17.8926Z" fill="#737373"/>
</svg>
