<svg width="26" height="26" viewBox="0 0 26 26" fill="none" xmlns="http://www.w3.org/2000/svg">
<path d="M7.08894 18.9061H7.70885C13.3342 18.9061 18.9597 18.9061 24.5856 18.9061C25.4261 18.9061 25.8441 19.2046 25.9822 19.89C26.0356 20.19 25.9679 20.4989 25.794 20.7491C25.62 20.9993 25.3539 21.1703 25.0541 21.2246C24.8928 21.244 24.7303 21.2514 24.5679 21.2468H6.18386C5.9922 21.2535 5.80034 21.242 5.61088 21.2122C5.18845 21.129 4.82535 20.7225 4.7669 20.2903C4.75156 20.1584 4.74505 20.0255 4.74742 19.8927C4.74742 13.7077 4.74742 7.52269 4.74742 1.33769C4.74742 0.568994 5.05827 0.159861 5.72158 0.0217086C5.87336 -0.00835566 6.02967 -0.00718396 6.18098 0.025168C6.33229 0.0575199 6.47542 0.120373 6.60164 0.209876C6.72785 0.299379 6.83451 0.413668 6.91509 0.545758C6.99568 0.677848 7.0485 0.824974 7.07034 0.978156C7.08927 1.18422 7.09578 1.39123 7.08982 1.59807C7.08982 7.1478 7.08982 12.6975 7.08982 18.2473L7.08894 18.9061Z" fill="#303030"/>
<path d="M18.9239 7.07369H18.3412C15.4341 7.07369 12.5264 7.07369 9.61808 7.07369C8.73249 7.07369 8.24452 6.58307 8.3012 5.78869C8.3168 5.52131 8.4286 5.2686 8.61594 5.07719C8.80328 4.88578 9.05353 4.76858 9.32052 4.74723C9.46664 4.73395 9.61454 4.73485 9.76332 4.73485C13.1132 4.73485 16.4637 4.73485 19.8148 4.73485C20.8775 4.73485 21.2663 5.11212 21.2672 6.16244C21.2672 9.57198 21.2672 12.9809 21.2672 16.3893C21.2672 17.2802 20.742 17.7788 19.9282 17.692C19.6772 17.6646 19.4431 17.5526 19.2642 17.3744C19.0854 17.1962 18.9726 16.9625 18.9443 16.7116C18.9289 16.535 18.9233 16.3576 18.9275 16.1803C18.9275 13.3464 18.9275 10.5125 18.9275 7.67856L18.9239 7.07369Z" fill="#303030"/>
<path d="M1.81691 4.74107C2.03831 4.74107 2.25971 4.72779 2.48111 4.74107C2.77216 4.75464 3.04634 4.88161 3.24496 5.09479C3.44358 5.30797 3.55085 5.59042 3.54382 5.88171C3.55091 6.52908 3.11785 7.02501 2.47668 7.05778C2.00473 7.08397 1.53169 7.08397 1.05973 7.05778C0.769968 7.03281 0.500176 6.89985 0.303877 6.68525C0.107579 6.47065 -0.000886335 6.1901 5.45577e-06 5.89926C0.000897246 5.60843 0.111077 5.32855 0.308688 5.11516C0.506299 4.90177 0.776906 4.77045 1.06682 4.74726C1.31567 4.72777 1.56806 4.74726 1.81869 4.74726L1.81691 4.74107Z" fill="#303030"/>
<path d="M18.9318 24.1967C18.9318 23.9753 18.9194 23.7539 18.9318 23.5334C18.9734 22.886 19.449 22.4494 20.0955 22.4503C20.7419 22.4512 21.2228 22.8887 21.2529 23.5378C21.2759 23.9945 21.2759 24.452 21.2529 24.9087C21.2347 25.2034 21.1048 25.4801 20.8896 25.6823C20.6745 25.8846 20.3903 25.9972 20.095 25.9972C19.7997 25.9972 19.5156 25.8846 19.3004 25.6823C19.0853 25.4801 18.9553 25.2034 18.9371 24.9087C18.9203 24.674 18.9371 24.4376 18.9371 24.2002L18.9318 24.1967Z" fill="#303030"/>
</svg>
