<svg width="19" height="21" viewBox="0 0 19 21" fill="none" xmlns="http://www.w3.org/2000/svg">
<path d="M18.8141 7.21328C18.8141 8.28108 18.8861 9.35536 18.7989 10.4152C18.5619 13.1849 17.3212 15.4646 15.2331 17.2903C14.2388 18.16 13.0528 18.7249 11.913 19.3625C11.3899 19.6551 10.8668 19.949 10.3401 20.2351C9.78101 20.5391 9.21541 20.5406 8.65773 20.2351C7.53373 19.6154 6.39821 19.0167 5.29583 18.3617C2.51537 16.7089 0.823613 14.2837 0.28323 11.0889C0.165787 10.3958 0.146333 9.68175 0.139128 8.97637C0.117513 7.51157 0.131201 6.04605 0.133363 4.58126C0.133363 3.52787 0.685997 2.89022 1.72497 2.76124C4.16174 2.45863 6.44288 1.70858 8.53884 0.420305C9.19955 0.014657 9.84225 0.037714 10.503 0.4412C12.6083 1.72731 14.9038 2.47808 17.355 2.76629C18.2427 2.87004 18.858 3.5394 18.8681 4.44076C18.8789 5.36517 18.8681 6.28959 18.8681 7.21472L18.8141 7.21328ZM17.373 7.24715H17.4278C17.4278 6.35804 17.422 5.46965 17.4321 4.58126C17.4321 4.3298 17.3464 4.20299 17.0913 4.17777C16.7692 4.14607 16.4472 4.10572 16.1287 4.05096C13.8667 3.6608 11.6965 2.85462 9.72841 1.67327C9.65878 1.63947 9.58249 1.62161 9.5051 1.62098C9.4277 1.62036 9.35114 1.63699 9.28097 1.66967C7.02505 3.01559 4.60125 3.86435 1.99012 4.16192C1.64716 4.20155 1.56286 4.35429 1.56574 4.67708C1.57943 6.27374 1.53908 7.87183 1.57943 9.46776C1.65941 12.7036 3.05792 15.2318 5.79802 16.9676C6.91049 17.6715 8.08853 18.2738 9.24927 18.9C9.33263 18.9351 9.42243 18.9525 9.51289 18.9509C9.60335 18.9492 9.69247 18.9287 9.77452 18.8906C10.8733 18.3012 11.9793 17.7205 13.0442 17.0728C15.5847 15.5287 17.0632 13.2699 17.3572 10.3C17.4573 9.29484 17.3738 8.26667 17.3738 7.24715H17.373Z" fill="#737373" stroke="#737373" stroke-width="0.25"/>
<path d="M8.97332 10.7042C9.55405 10.0881 10.1204 9.48721 10.686 8.88559C11.1377 8.40429 11.5844 7.91938 12.0391 7.44457C12.3741 7.09296 12.8187 7.05693 13.1199 7.34442C13.421 7.6319 13.416 8.07717 13.0838 8.43311C11.931 9.6695 10.7746 10.903 9.61457 12.1337C9.23775 12.5328 8.86956 12.5422 8.45383 12.1762C7.77799 11.5825 7.10551 10.9854 6.4364 10.385C6.09127 10.0752 6.04444 9.64501 6.30815 9.33086C6.57185 9.01672 7.02866 8.99294 7.3954 9.30925C7.92065 9.76173 8.43581 10.2265 8.97332 10.7042Z" fill="#737373" stroke="#737373" stroke-width="0.25"/>
</svg>
