<svg width="18" height="18" viewBox="0 0 18 18" fill="none" xmlns="http://www.w3.org/2000/svg">
<path d="M8.98761 7.1924L1.99067 7.1924C1.37496 7.1924 1.19054 7.00498 1.19054 6.37966C1.19054 4.50748 1.19054 2.6355 1.19054 0.763727C1.19054 0.0867398 1.55757 -0.159546 2.1817 0.102959C6.88356 2.05843 11.5854 4.01531 16.2873 5.97358C16.3426 5.99701 16.399 6.01803 16.4525 6.04507C16.7192 6.18022 16.858 6.44393 16.8027 6.70583C16.7772 6.84038 16.7057 6.96188 16.6005 7.04954C16.4954 7.13721 16.363 7.18558 16.226 7.18639C15.8764 7.19901 15.5256 7.1912 15.1754 7.1912L8.98761 7.1924Z" fill="#737373"/>
<path d="M1.19104 14.393C1.19104 13.4415 1.19104 12.4902 1.19104 11.5391C1.19104 11.005 1.40128 10.7972 1.94071 10.7972C6.64598 10.7972 11.3506 10.8038 16.0571 10.7876C16.6578 10.7876 16.9702 11.2747 16.7359 11.6664C16.647 11.8142 16.4674 11.9355 16.3022 12.0046C13.6327 13.1259 10.9606 14.2426 8.28588 15.3547C6.24791 16.2037 4.20954 17.0519 2.17078 17.8992C1.56527 18.1509 1.19104 17.8992 1.19044 17.2481C1.18923 16.2962 1.18943 15.3445 1.19104 14.393ZM2.41105 12.0124L2.41105 16.4972L13.068 12.0563L13.0554 12.0124L2.41105 12.0124Z" fill="#737373"/>
<path d="M8.97217 9.59578L0.802675 9.59578C0.702475 9.60033 0.602074 9.59732 0.502325 9.58677C0.361984 9.56347 0.234468 9.49113 0.142479 9.38261C0.0504894 9.27409 -3.25788e-08 9.13644 -2.63604e-08 8.99418C-2.01419e-08 8.85192 0.0504894 8.71428 0.142479 8.60576C0.234468 8.49724 0.361984 8.42489 0.502325 8.40159C0.602106 8.39153 0.702486 8.38872 0.802675 8.39318L17.1999 8.39318C17.2901 8.38967 17.3803 8.39127 17.4703 8.39799C17.6163 8.41536 17.7508 8.48567 17.8484 8.5956C17.9461 8.70553 18 8.84746 18 8.99448C18 9.14151 17.9461 9.28344 17.8484 9.39337C17.7508 9.5033 17.6163 9.57361 17.4703 9.59098C17.3703 9.59832 17.27 9.59992 17.1699 9.59578L8.97217 9.59578Z" fill="#737373"/>
</svg>
