<svg width="30" height="26" viewBox="0 0 30 26" fill="none" xmlns="http://www.w3.org/2000/svg">
<path d="M6.49121 6.53534L2.28068 2.41253C2.17188 2.30558 2.05784 2.20254 1.9569 2.08907C1.44566 1.50867 1.43255 0.810881 1.92019 0.334821C2.40784 -0.141239 3.07245 -0.117762 3.65972 0.457423C4.9824 1.75257 6.31162 3.0425 7.59235 4.37938C8.04591 4.85413 8.30677 4.8124 8.72625 4.36112C9.44985 3.57855 10.256 2.87294 10.9954 2.10342C12.5842 0.452206 15.0355 0.525243 16.5797 2.11776C18.9603 4.57241 21.4194 6.9501 23.8419 9.36431C25.6024 11.1212 25.6116 13.2367 23.8537 14.9936C20.7548 18.0873 17.6524 21.1741 14.5465 24.2539C12.318 26.4529 9.53768 26.449 7.30264 24.2539C5.40843 22.3914 3.53125 20.5093 1.64753 18.6351C-0.531147 16.4687 -0.553431 13.658 1.60689 11.4616C3.01215 10.0334 4.43707 8.62479 5.85282 7.20574C6.02847 7.02314 6.20413 6.83402 6.49121 6.53534ZM8.23074 8.28568C8.11175 8.34718 7.99856 8.4192 7.89254 8.50088C6.27754 10.1195 4.65337 11.729 3.06328 13.3723C2.76833 13.6762 2.61627 14.1171 2.3069 14.6531H3.3556C8.57419 14.6531 13.7941 14.5945 19.0114 14.691C20.4206 14.7171 21.4129 14.3232 22.2702 13.268C22.9256 12.4567 22.9728 11.8568 22.2269 11.1055C21.2294 10.1012 20.2239 9.10607 19.2211 8.10569C17.7687 6.66142 16.3162 5.21759 14.8638 3.77419C14.2083 3.12206 13.6119 2.95381 13.081 3.47421C12.0323 4.50459 11.0845 5.64192 10.0948 6.7349C10.0017 6.71012 10.0948 6.83141 10.1931 6.93575C11.2077 7.95309 12.2302 8.9626 13.2409 9.98515C13.604 10.353 13.8793 10.7677 13.6591 11.3233C13.3091 12.2142 12.3298 12.3941 11.5879 11.6664C10.4553 10.5564 9.35023 9.41648 8.23074 8.28568Z" fill="#35339A"/>
<path d="M29.2911 22.8088C29.1771 24.2018 28.5583 25.1669 27.351 25.6991C26.1712 26.2208 25.0255 26.063 24.041 25.2347C23.0015 24.3596 22.4903 23.1949 23.0408 21.9167C23.7251 20.3281 24.5969 18.8164 25.4411 17.3022C25.7334 16.7804 26.398 16.7622 26.6838 17.2787C27.5542 18.8516 28.3604 20.4598 29.1639 22.068C29.2845 22.3067 29.2609 22.6171 29.2911 22.8088Z" fill="#35339A"/>
</svg>
